<svg xmlns="http://www.w3.org/2000/svg" style="display: none;"><symbol id="code" viewBox="0 0 512 512"><title>code</title><path d="m474.5 71.5h-26.261c-4.143 0-7.5 3.357-7.5 7.5s3.357 7.5 7.5 7.5h26.261c12.406 0 22.5 10.094 22.5 22.5v34.5h-482v-34.5c0-12.406 10.093-22.5 22.5-22.5h377.809c4.143 0 7.5-3.357 7.5-7.5s-3.357-7.5-7.5-7.5h-377.809c-20.678 0-37.5 16.822-37.5 37.5v82.681c0 4.143 3.358 7.5 7.5 7.5s7.5-3.357 7.5-7.5v-33.181h482v193.366c0 4.143 3.357 7.5 7.5 7.5s7.5-3.357 7.5-7.5v-242.866c0-20.678-16.822-37.5-37.5-37.5z"/><path d="m504.5 375.994c-4.143 0-7.5 3.357-7.5 7.5v19.506c0 12.406-10.094 22.5-22.5 22.5h-437c-12.407 0-22.5-10.094-22.5-22.5v-179.133c0-4.143-3.358-7.5-7.5-7.5s-7.5 3.357-7.5 7.5v179.133c0 20.678 16.822 37.5 37.5 37.5h437c20.678 0 37.5-16.822 37.5-37.5v-19.506c0-4.142-3.357-7.5-7.5-7.5z"/><path d="m108.482 234.457c-2.929-2.928-7.678-2.928-10.606 0l-45.07 45.07c-1.407 1.407-2.197 3.314-2.197 5.304s.79 3.896 2.197 5.304l44.474 44.474c1.464 1.464 3.384 2.196 5.303 2.196s3.839-.732 5.303-2.196c2.929-2.93 2.929-7.678 0-10.607l-39.171-39.17 39.767-39.767c2.93-2.93 2.93-7.678 0-10.608z"/><path d="m209.344 334.608c1.464 1.464 3.384 2.196 5.303 2.196s3.839-.732 5.303-2.196l44.475-44.474c1.406-1.407 2.196-3.314 2.196-5.304s-.79-3.896-2.196-5.304l-45.071-45.07c-2.929-2.928-7.678-2.928-10.606 0-2.929 2.93-2.929 7.678 0 10.607l39.768 39.767-39.171 39.17c-2.93 2.931-2.93 7.679-.001 10.608z"/><path d="m131.99 362.234c3.025 0 5.876-1.844 7.013-4.841l53.294-140.398c1.47-3.873-.478-8.204-4.35-9.674-3.872-1.471-8.204.478-9.673 4.35l-53.294 140.4c-1.47 3.872.478 8.203 4.35 9.673.876.333 1.775.49 2.66.49z"/><path d="m33.006 115.371c0 12.406 10.093 22.5 22.5 22.5s22.5-10.094 22.5-22.5-10.093-22.5-22.5-22.5-22.5 10.094-22.5 22.5zm30 0c0 4.136-3.364 7.5-7.5 7.5s-7.5-3.364-7.5-7.5 3.364-7.5 7.5-7.5 7.5 3.364 7.5 7.5z"/><path d="m91.166 115.371c0 12.406 10.093 22.5 22.5 22.5s22.5-10.094 22.5-22.5-10.093-22.5-22.5-22.5-22.5 10.094-22.5 22.5zm30 0c0 4.136-3.364 7.5-7.5 7.5s-7.5-3.364-7.5-7.5 3.364-7.5 7.5-7.5 7.5 3.364 7.5 7.5z"/><path d="m149.325 115.371c0 12.406 10.093 22.5 22.5 22.5s22.5-10.094 22.5-22.5-10.093-22.5-22.5-22.5-22.5 10.094-22.5 22.5zm30 0c0 4.136-3.364 7.5-7.5 7.5s-7.5-3.364-7.5-7.5 3.364-7.5 7.5-7.5 7.5 3.364 7.5 7.5z"/><path d="m335.5 242.368h47c12.406 0 22.5-10.094 22.5-22.5s-10.094-22.5-22.5-22.5h-47c-12.406 0-22.5 10.094-22.5 22.5s10.094 22.5 22.5 22.5zm0-30h47c4.136 0 7.5 3.364 7.5 7.5s-3.364 7.5-7.5 7.5h-47c-4.136 0-7.5-3.364-7.5-7.5s3.364-7.5 7.5-7.5z"/><path d="m335.5 302.368h124c12.406 0 22.5-10.094 22.5-22.5s-10.094-22.5-22.5-22.5h-124c-12.406 0-22.5 10.094-22.5 22.5s10.094 22.5 22.5 22.5zm0-30h124c4.136 0 7.5 3.364 7.5 7.5s-3.364 7.5-7.5 7.5h-124c-4.136 0-7.5-3.364-7.5-7.5s3.364-7.5 7.5-7.5z"/><path d="m335.5 362.368h87.165c12.406 0 22.5-10.094 22.5-22.5s-10.094-22.5-22.5-22.5h-87.165c-12.406 0-22.5 10.094-22.5 22.5s10.094 22.5 22.5 22.5zm0-30h87.165c4.136 0 7.5 3.364 7.5 7.5s-3.364 7.5-7.5 7.5h-87.165c-4.136 0-7.5-3.364-7.5-7.5s3.364-7.5 7.5-7.5z"/></symbol><symbol id="circuit" viewBox="0 0 488 488"><title>circuit</title><g> <g> <path d="M440.36,344.408c-4.832-12.4-16.528-20.408-29.832-20.408H344v-12.688L395.312,260h29.824c3.576,13.768,16,24,30.864,24 c17.648,0,32-14.352,32-32s-14.352-32-32-32c-14.864,0-27.288,10.232-30.864,24H392c-2.12,0-4.16,0.84-5.656,2.344L344,288.688 v-25.376l93.656-93.656C439.16,168.16,440,166.128,440,164V66.864c13.76-3.576,24-15.992,24-30.864c0-17.648-14.352-32-32-32 s-32,14.352-32,32c0,14.872,10.24,27.288,24,30.864v93.824l-8,8l-24-24V108h-16v40c0,2.128,0.84,4.16,2.344,5.656L404.688,180 L360,224.688l-16-16V180h-16v32c0,2.128,0.84,4.16,2.344,5.656L348.688,236l-18.344,18.344C328.84,255.84,328,257.872,328,260v64 h-32V191.312l45.656-45.656C343.16,144.16,344,142.128,344,140V90.864c13.76-3.576,24-15.992,24-30.864c0-17.648-14.352-32-32-32 s-32,14.352-32,32c0,14.872,10.24,27.288,24,30.864v45.824l-45.656,45.656C280.84,183.84,280,185.872,280,188v136h-32V66.864 c13.76-3.576,24-15.992,24-30.864c0-17.648-14.352-32-32-32s-32,14.352-32,32c0,14.872,10.24,27.288,24,30.864v165.824l-24-24V148 h-16v64c0,2.128,0.84,4.16,2.344,5.656L232,255.312V324h-32v-40c0-2.128-0.84-4.16-2.344-5.656L123.312,204l42.344-42.344 C167.16,160.16,168,158.128,168,156V98.864c13.76-3.576,24-15.992,24-30.864c0-17.648-14.352-32-32-32s-32,14.352-32,32 c0,14.872,10.24,27.288,24,30.864v53.824l-40,40l-16-16v-29.824c13.76-3.576,24-15.992,24-30.864c0-17.648-14.352-32-32-32 s-32,14.352-32,32c0,14.872,10.24,27.288,24,30.864V180c0,2.128,0.84,4.16,2.344,5.656L184,287.312V324h-32v-24 c0-2.128-0.84-4.16-2.344-5.656L40,184.688V66.864C53.76,63.288,64,50.872,64,36C64,18.352,49.648,4,32,4S0,18.352,0,36 c0,14.872,10.24,27.288,24,30.864V188c0,2.128,0.84,4.16,2.344,5.656L68.688,236H64c-2.12,0-4.16,0.84-5.656,2.344l-10.192,10.192 C43.392,245.72,37.92,244,32,244c-17.648,0-32,14.352-32,32s14.352,32,32,32s32-14.352,32-32c0-5.92-1.72-11.392-4.536-16.152 L67.312,252h17.376L136,303.312V324H69.472c-13.304,0-25,8.008-29.824,20.408l-37.336,96c-3.832,9.84-2.552,20.936,3.416,29.656 C11.696,478.792,21.568,484,32.144,484h415.72c10.568,0,20.448-5.208,26.416-13.936c5.968-8.72,7.24-19.816,3.416-29.656 L440.36,344.408z M456,236c8.824,0,16,7.176,16,16c0,8.824-7.176,16-16,16c-8.824,0-16-7.176-16-16 C440,243.176,447.176,236,456,236z M416,36c0-8.824,7.176-16,16-16c8.824,0,16,7.176,16,16s-7.176,16-16,16 C423.176,52,416,44.824,416,36z M320,60c0-8.824,7.176-16,16-16c8.824,0,16,7.176,16,16s-7.176,16-16,16 C327.176,76,320,68.824,320,60z M144,68c0-8.824,7.176-16,16-16c8.824,0,16,7.176,16,16s-7.176,16-16,16 C151.176,84,144,76.824,144,68z M72,116c0-8.824,7.176-16,16-16s16,7.176,16,16s-7.176,16-16,16S72,124.824,72,116z M16,36 c0-8.824,7.176-16,16-16s16,7.176,16,16s-7.176,16-16,16S16,44.824,16,36z M32,292c-8.824,0-16-7.176-16-16 c0-8.824,7.176-16,16-16s16,7.176,16,16C48,284.824,40.824,292,32,292z M296,340h32v16h-32V340z M280,340v16h-32v-16H280z M224,36 c0-8.824,7.176-16,16-16c8.824,0,16,7.176,16,16s-7.176,16-16,16C231.176,52,224,44.824,224,36z M200,340h32v16h-32V340z M152,340 h32v16h-32V340z M152,404v-32h32v32h16v-32h32v32h16v-32h32v32h16v-32h32v32h16v-32h34.232l18.664,56h-313.8l18.664-56H136v32H152 z M461.072,461.032c-3.032,4.432-7.848,6.968-13.216,6.968H32.144c-5.36,0-10.176-2.536-13.208-6.968 c-3.032-4.432-3.656-9.832-1.712-14.832l37.336-96c2.416-6.192,8.264-10.2,14.912-10.2H136v16H96c-3.448,0-6.496,2.2-7.592,5.472 l-24,72c-0.816,2.44-0.4,5.128,1.104,7.208c1.504,2.08,3.92,3.32,6.488,3.32h336c2.568,0,4.984-1.232,6.488-3.32 c1.504-2.088,1.912-4.776,1.104-7.208l-24-72C390.496,358.2,387.448,356,384,356h-40v-16h66.528c6.648,0,12.496,4.008,14.912,10.2 l37.336,96C464.72,451.2,464.104,456.6,461.072,461.032z"/> </g> </g><g> <g> <rect x="192" y="100" width="16" height="32"/> </g> </g><g> <g> <rect x="376" y="76" width="16" height="16"/> </g> </g></symbol><symbol id="code-1" viewBox="0 0 495.4 495.4"><title>code-1</title><path d="M240.248,144c-61.76,0-112,50.24-112,112s50.24,112,112,112s112-50.24,112-112S302.008,144,240.248,144z M240.248,352 c-52.936,0-96-43.064-96-96c0-52.936,43.064-96,96-96c52.936,0,96,43.064,96,96C336.248,308.936,293.184,352,240.248,352z"/><path d="M240.248,112c-79.4,0-144,64.6-144,144c0,22.024,5.12,42.832,14,61.52l-15.64,15.72l-9.352-9.352L73.944,335.2 l9.384,9.384L14.112,414.16c-8.944,8.992-13.864,20.92-13.864,33.6c0,26.264,21.376,47.64,47.688,47.64 c12.648,0,24.552-4.896,33.528-13.808l69.76-69.12l13.224,13.224l11.312-11.312l-13.176-13.176l15.616-15.472 C197.024,394.784,218.016,400,240.248,400c79.4,0,144-64.6,144-144S319.648,112,240.248,112z M70.2,470.232 c-5.96,5.904-13.864,9.168-22.312,9.168c-17.448,0-31.64-14.2-31.64-31.64c0-8.424,3.272-16.352,9.208-22.32l69.184-69.544 l45.272,45.272L70.2,470.232z M151.28,389.904l-45.352-45.352l12.336-12.4c11.512,18.376,27.016,33.952,45.344,45.544 L151.28,389.904z M240.248,384c-70.576,0-128-57.424-128-128s57.424-128,128-128s128,57.424,128,128S310.824,384,240.248,384z"/><path d="M311.152,0c-79.2,0-149.328,50.416-174.496,125.456l15.168,5.096c8.312-24.784,22.048-46.56,39.552-64.344 C206.088,76.72,250.064,104,311.152,104c22.256,0,42.192-3.656,59.336-8.776c11.888,24.616,20.664,54.384,20.664,88.776 c0,7.672-0.448,15.448-1.312,23.096l15.888,1.816c0.64-5.6,0.984-11.256,1.192-16.904h71.928 c-1.968,42.208-19.376,80.944-47.888,109.848c-5.352-3.808-14.6-9.848-27.176-16.016l-7.048,14.376 c9.672,4.736,17.152,9.376,22.168,12.768c-13.424,11.168-28.712,20.424-45.624,27.168l5.92,14.856 C449.648,326.944,495.152,259.824,495.152,184C495.152,82.536,412.616,0,311.152,0z M203.44,55.016 c23.776-19.84,52.944-32.944,84.512-37.32c-12.648,12.424-29.632,31.912-44.096,57.872 C225.152,68.568,211.24,60.272,203.44,55.016z M304.248,87.76c-16.472-0.624-31.544-3.352-44.888-7.144 c15.256-26.496,33.352-45.584,44.888-56.256V87.76z M320.248,87.696V26.464c11.496,10.984,28.224,29.36,42.56,54.232 C350.104,84.288,335.832,86.92,320.248,87.696z M334.576,17.832c31.728,4.456,60.68,17.656,84.168,37.296 c-7.784,5.248-21.552,13.464-40.072,20.408C364.304,49.688,347.296,30.28,334.576,17.832z M406.968,176 c-1.192-33.152-9.616-61.96-20.944-86.08c21.608-8.304,37.12-18.16,44.784-23.64c28.096,28.552,45.912,67.088,47.936,109.72 H406.968z"/><rect x="200.248" y="224" width="16" height="64"/><rect x="296.248" y="224" width="16" height="64"/><path d="M232.248,288h48v-64h-48V288z M248.248,240h16v32h-16V240z"/><rect x="168.248" y="224" width="16" height="64"/></symbol><symbol id="router" viewBox="0 0 480 480"><title>router</title><path d="m480 301.5v72c0 22.056-17.944 40-40 40h-400c-22.056 0-40-17.944-40-40v-72c0-22.056 17.944-40 40-40h16v-206.5c0-16.266 13.234-29.5 29.5-29.5s29.5 13.234 29.5 29.5v184.5c0 4.418-3.582 8-8 8s-8-3.582-8-8v-184.5c0-7.444-6.056-13.5-13.5-13.5s-13.5 6.056-13.5 13.5v206.5h243.667c4.418 0 8 3.582 8 8s-3.582 8-8 8h-275.667c-13.233 0-24 10.766-24 24v72c0 13.234 10.767 24 24 24h400c13.233 0 24-10.766 24-24v-72c0-13.234-10.767-24-24-24h-67c-4.418 0-8-3.582-8-8v-214.5c0-16.266 13.234-29.5 29.5-29.5s29.5 13.234 29.5 29.5v184.5c0 4.418-3.582 8-8 8s-8-3.582-8-8v-184.5c0-7.444-6.056-13.5-13.5-13.5s-13.5 6.056-13.5 13.5v206.5h59c22.056 0 40 17.944 40 40zm-406 28c-4.418 0-8 3.582-8 8s3.582 8 8 8h21.333c4.418 0 8-3.582 8-8s-3.582-8-8-8zm56.333 0c-4.418 0-8 3.582-8 8s3.582 8 8 8h56.667c4.418 0 8-3.582 8-8s-3.582-8-8-8zm-12.333 109h-56c-4.418 0-8 3.582-8 8s3.582 8 8 8h56c4.418 0 8-3.582 8-8s-3.582-8-8-8zm300 0h-56c-4.418 0-8 3.582-8 8s3.582 8 8 8h56c4.418 0 8-3.582 8-8s-3.582-8-8-8zm-167.049-262.926c9.357 9.357 2.811 25.606-10.607 25.606-13.262 0-20.062-16.151-10.607-25.606 2.834-2.833 6.601-4.394 10.607-4.394 6.738.001 10.607 4.394 10.607 4.394zm26.163-14.849c3.125-3.124 3.125-8.19 0-11.314-20.323-20.323-53.215-20.324-73.539 0-3.125 3.124-3.125 8.189 0 11.314 3.124 3.124 8.189 3.124 11.313 0 14.07-14.07 36.84-14.071 50.912 0 3.124 3.124 8.19 3.124 11.314 0zm-91.924-29.699c30.484-30.484 79.822-30.486 110.309 0 1.562 1.562 3.609 2.343 5.657 2.343 7.063 0 10.711-8.603 5.657-13.657-36.737-36.736-96.197-36.74-132.936 0-3.125 3.124-3.125 8.189 0 11.314 3.123 3.125 8.189 3.125 11.313 0z"/></symbol><symbol id="cryptography" viewBox="0 0 64 64"><title>cryptography</title><path d="m35.988 29.649c-.039-.043-.068-.092-.109-.133l-1.465-1.464 1.293-1.293-1.414-1.414-1.293 1.293-1-1-9.414 9.414 1 1-1.321 1.321 1.414 1.414 1.321-1.321 1.465 1.465c.041.041.09.07.133.109l-1.253 1.253 1.414 1.414 1.722-1.723c.226.041.456.068.691.068 2.11 0 3.828-1.718 3.828-3.828 0-.059-.001-.117-.004-.176 2.16.114 4.004-1.655 4.004-3.825 0-.234-.026-.464-.067-.69l1.774-1.774-1.414-1.414zm-6.816 8.403c-.481 0-.953-.195-1.293-.535l-2.465-2.465 2.586-2.586 2.465 2.465c.345.345.535.804.535 1.293 0 1.007-.82 1.828-1.828 1.828zm4-4c-.481 0-.953-.195-1.293-.535l-2.465-2.465 2.586-2.586 2.465 2.464c.34.34.535.812.535 1.293 0 1.008-.82 1.829-1.828 1.829z"/><path d="m30 21c-7.168 0-13 5.832-13 13s5.832 13 13 13 13-5.832 13-13-5.832-13-13-13zm0 24c-6.065 0-11-4.935-11-11s4.935-11 11-11 11 4.935 11 11-4.935 11-11 11z"/><circle cx="6" cy="58" r="1"/><circle cx="13" cy="34" r="1"/><circle cx="30" cy="17" r="1"/><circle cx="30" cy="51" r="1"/><circle cx="47" cy="34" r="1"/><path d="m60 57c-.462 0-.894.113-1.285.301l-13.801-13.801 1.586-1.586 4.086 4.086h5.598c.414 1.161 1.514 2 2.816 2 1.654 0 3-1.346 3-3s-1.346-3-3-3c-1.302 0-2.402.839-2.816 2h-4.77l-3.5-3.5 2.379-2.379c.992-.992 1.591-2.332 1.687-3.727l.606.606h.414c2.206 0 4-1.794 4-4v-.414l-2.586-2.586 4.772-4.772c2.46-2.459 3.814-5.729 3.814-9.207 0-7.18-5.841-13.021-13.021-13.021-3.479 0-6.748 1.354-9.207 3.814l-4.772 4.772-2.586-2.586h-.414c-2.206 0-4 1.794-4 4v.414l.606.606c-1.395.097-2.735.695-3.727 1.687l-2.379 2.379-3.5-3.5v-4.77c1.161-.414 2-1.514 2-2.816 0-1.654-1.346-3-3-3s-3 1.346-3 3c0 1.302.839 2.402 2 2.816v5.598l4.086 4.086-1.586 1.586-13.801-13.801c.188-.391.301-.823.301-1.285 0-1.654-1.346-3-3-3s-3 1.346-3 3 1.346 3 3 3c.462 0 .894-.113 1.285-.301l13.801 13.801-1.586 1.586-4.086-4.086h-5.598c-.414-1.161-1.514-2-2.816-2-1.654 0-3 1.346-3 3s1.346 3 3 3c1.302 0 2.402-.839 2.816-2h4.77l3.5 3.5-6.379 6.379c-1.101 1.1-1.707 2.564-1.707 4.121 0 1.534.622 3.036 1.707 4.121l5.371 5.371-6.099 6.073-1.444-1.444c-.723-.723-1.684-1.121-2.707-1.121-2.11 0-3.828 1.718-3.828 3.828 0 1.022.398 1.984 1.121 2.707l.465.465-.051.051c-.99.99-1.535 2.306-1.535 3.707 0 2.89 2.352 5.242 5.242 5.242 1.4 0 2.717-.545 3.707-1.535l.051-.051.465.465c.723.723 1.684 1.121 2.707 1.121 2.11 0 3.828-1.718 3.828-3.828 0-1.022-.398-1.984-1.121-2.707l-1.485-1.485 6.099-6.073 5.386 5.386c1.085 1.085 2.587 1.707 4.121 1.707s3.036-.622 4.121-1.707l6.379-6.379 3.5 3.5v4.77c-1.161.414-2 1.514-2 2.816 0 1.654 1.346 3 3 3s3-1.346 3-3c0-1.302-.839-2.402-2-2.816v-5.598l-4.086-4.086 1.586-1.586 13.801 13.801c-.188.391-.301.823-.301 1.285 0 1.654 1.346 3 3 3s3-1.346 3-3-1.346-3-3-3zm-1-13c.552 0 1 .448 1 1s-.448 1-1 1-1-.448-1-1 .448-1 1-1zm-40-40c.552 0 1 .449 1 1s-.448 1-1 1-1-.449-1-1 .448-1 1-1zm-15 1c-.552 0-1-.449-1-1s.448-1 1-1 1 .449 1 1-.448 1-1 1zm1 15c-.552 0-1-.449-1-1s.448-1 1-1 1 .449 1 1-.448 1-1 1zm40 40c-.552 0-1-.448-1-1s.448-1 1-1 1 .448 1 1-.448 1-1 1zm-2.813-53.772c2.081-2.082 4.848-3.228 7.792-3.228 6.078 0 11.021 4.944 11.021 11.021 0 2.943-1.146 5.711-3.228 7.793l-4.772 4.772-2.828-2.828 4.772-4.772c1.327-1.327 2.056-3.09 2.056-4.965 0-3.872-3.149-7.021-7.021-7.021-1.875 0-3.638.73-4.965 2.056l-4.772 4.772-2.828-2.828zm-.531 9.014 4.772-4.772c.949-.948 2.211-1.47 3.551-1.47 2.769 0 5.021 2.252 5.021 5.021 0 1.341-.522 2.602-1.47 3.551l-4.772 4.772zm-9.034-6.206 22.342 22.342c-.153.8-.785 1.432-1.586 1.585l-22.342-22.341c.153-.8.785-1.433 1.586-1.586zm-17.622 50.136c0 1.008-.82 1.828-1.828 1.828-.481 0-.953-.195-1.293-.535l-1.879-1.879-1.465 1.465c-.612.612-1.427.949-2.293.949-1.788 0-3.242-1.454-3.242-3.242 0-.866.337-1.681.949-2.293l1.465-1.465-1.879-1.879c-.34-.34-.535-.811-.535-1.293 0-1.008.82-1.828 1.828-1.828.481 0 .953.195 1.293.535l8.344 8.344c.34.34.535.811.535 1.293zm-2.021-5.607-2.585-2.585 6.099-6.073 2.585 2.585zm19.728-.686c-.713.713-1.699 1.121-2.707 1.121s-1.994-.408-2.707-1.121l-16.172-16.172c-.713-.713-1.121-1.699-1.121-2.707 0-1.022.398-1.984 1.121-2.707l16.172-16.172c.713-.712 1.699-1.121 2.707-1.121s1.994.409 2.707 1.121l16.172 16.172c.723.723 1.121 1.685 1.121 2.707 0 1.008-.408 1.994-1.121 2.707zm27.293 8.121c-.552 0-1-.448-1-1s.448-1 1-1 1 .448 1 1-.448 1-1 1z"/></symbol><symbol id="wifi" viewBox="0 0 480 480"><title>wifi</title><g> <g> <path d="M312,96H168c-22.08,0.026-39.974,17.92-40,40v304c0.026,22.08,17.92,39.974,40,40h144c22.08-0.026,39.974-17.92,40-40V136 C351.974,113.92,334.08,96.026,312,96z M336,440c0,13.255-10.745,24-24,24H168c-13.255,0-24-10.745-24-24v-8h192V440z M336,416 H144V160h192V416z M336,144H144v-8c0-13.255,10.745-24,24-24h144c13.255,0,24,10.745,24,24V144z"/> </g> </g><g> <g> <path d="M328,64c-4.418,0-8,3.582-8,8s3.582,8,8,8c22.08,0.026,39.974,17.92,40,40c0,4.418,3.582,8,8,8s8-3.582,8-8 C383.965,89.087,358.913,64.035,328,64z"/> </g> </g><g> <g> <path d="M328,32c-4.418,0-8,3.582-8,8s3.582,8,8,8c39.746,0.044,71.956,32.254,72,72c0,4.418,3.582,8,8,8s8-3.582,8-8 C415.943,71.423,376.577,32.057,328,32z"/> </g> </g><g> <g> <path d="M328,0c-4.418,0-8,3.582-8,8s3.582,8,8,8c57.41,0.066,103.934,46.59,104,104c0,4.418,3.582,8,8,8s8-3.582,8-8 C447.925,53.757,394.243,0.075,328,0z"/> </g> </g><g> <g> <path d="M152,64c-30.913,0.035-55.965,25.087-56,56c0,4.418,3.582,8,8,8s8-3.582,8-8c0.026-22.08,17.92-39.974,40-40 c4.418,0,8-3.582,8-8S156.418,64,152,64z"/> </g> </g><g> <g> <path d="M152,32c-48.577,0.057-87.943,39.423-88,88c0,4.418,3.582,8,8,8s8-3.582,8-8c0.044-39.746,32.254-71.956,72-72 c4.418,0,8-3.582,8-8S156.418,32,152,32z"/> </g> </g><g> <g> <path d="M152,0C85.755,0.071,32.071,53.755,32,120c0,4.418,3.582,8,8,8s8-3.582,8-8C48.066,62.59,94.59,16.066,152,16 c4.418,0,8-3.582,8-8S156.418,0,152,0z"/> </g> </g><g> <g> <rect x="304" y="176" width="16" height="48"/> </g> </g><g> <g> <rect x="272" y="192" width="16" height="32"/> </g> </g><g> <g> <rect x="240" y="208" width="16" height="16"/> </g> </g></symbol><symbol id="robot" viewBox="0 -28 512 512"><title>robot</title><path d="m87.660156 384.773438c-4.140625 0-7.5 3.359374-7.5 7.5 0 9.125-7.421875 16.546874-16.546875 16.546874s-16.546875-7.421874-16.546875-16.546874 7.421875-16.546876 16.546875-16.546876c4.140625 0 7.5-3.359374 7.5-7.5 0-4.140624-3.359375-7.5-7.5-7.5-17.394531 0-31.546875 14.152344-31.546875 31.546876 0 17.398437 14.152344 31.546874 31.546875 31.546874s31.546875-14.148437 31.546875-31.546874c0-4.140626-3.355468-7.5-7.5-7.5zm0 0"/><path d="m280.046875 384.773438c-4.140625 0-7.5 3.359374-7.5 7.5 0 9.125-7.421875 16.546874-16.546875 16.546874s-16.546875-7.421874-16.546875-16.546874 7.421875-16.546876 16.546875-16.546876c4.140625 0 7.5-3.359374 7.5-7.5 0-4.140624-3.359375-7.5-7.5-7.5-17.394531 0-31.546875 14.152344-31.546875 31.546876 0 17.398437 14.152344 31.546874 31.546875 31.546874s31.546875-14.148437 31.546875-31.546874c0-4.140626-3.355469-7.5-7.5-7.5zm0 0"/><path d="m448.386719 328.660156c-29.726563 0-54.746094 20.496094-61.691407 48.097656h-34.226562l79.792969-93.089843c4.894531-5.714844 7.59375-13.007813 7.59375-20.53125v-15.152344c0-8.554687-6.960938-15.515625-15.515625-15.515625h-32.582032v-66.394531c9.308594-3.140625 16.03125-11.945313 16.03125-22.300781 0-3.757813-.890624-7.308594-2.460937-10.464844l17.269531-17.269532c5.957032-5.957031 9.242188-13.878906 9.242188-22.308593v-30.632813h16.546875c17.394531 0 31.546875-14.152344 31.546875-31.550781 0-17.394531-14.152344-31.546875-31.546875-31.546875h-48.097657c-8.554687 0-15.515624 6.960938-15.515624 15.515625v32.0625c0 8.558594 6.960937 15.519531 15.515624 15.519531h16.546876v30.632813c0 4.421875-1.71875 8.578125-4.847657 11.703125l-17.269531 17.269531c-3.152344-1.570313-6.703125-2.460937-10.460938-2.460937-12.976562 0-23.535156 10.554687-23.535156 23.53125 0 10.355468 6.726563 19.160156 16.035156 22.300781v66.394531h-201.433593v-17.066406h136.789062c12.976563 0 23.53125-10.558594 23.53125-23.53125v-32.066406c0-12.976563-10.554687-23.53125-23.53125-23.53125h-288.582031c-12.972656 0-23.53125 10.554687-23.53125 23.53125v32.066406c0 12.976562 10.558594 23.53125 23.53125 23.53125h136.792969v17.066406h-72.664063c-8.554687 0-15.515625 6.957031-15.515625 15.515625v15.152344c0 7.523437 2.699219 14.8125 7.59375 20.527343l79.792969 93.09375h-34.226562c-6.945313-27.601562-31.96875-48.097656-61.691407-48.097656-35.078125 0-63.613281 28.535156-63.613281 63.613282 0 35.078124 28.535156 63.613281 63.613281 63.613281 35.074219 0 63.613281-28.535157 63.613281-63.613281 0-.171876-.011718-.34375-.011718-.515626h65.183594c0 .171876-.011719.34375-.011719.515626 0 35.078124 28.539062 63.613281 63.613281 63.613281s63.613281-28.535157 63.613281-63.613281c0-.171876-.011719-.34375-.011719-.515626h65.1875c-.003906.171876-.015624.34375-.015624.515626 0 35.078124 28.539062 63.613281 63.613281 63.613281 35.078125 0 63.613281-28.535157 63.613281-63.613281 0-35.074219-28.535156-63.613282-63.613281-63.613282zm16.550781-297.113281c0 9.125-7.425781 16.550781-16.550781 16.550781h-.515625v-33.097656h.515625c9.125 0 16.550781 7.421875 16.550781 16.546875zm-65.164062 16.03125v-32.0625c0-.285156.230468-.515625.515624-.515625h32.582032v33.097656h-32.582032c-.28125 0-.515624-.234375-.515624-.519531zm-15.515626 87.664063c4.707032 0 8.53125 3.828124 8.53125 8.53125 0 4.703124-3.828124 8.53125-8.53125 8.53125-4.703124 0-8.53125-3.828126-8.53125-8.53125 0-4.703126 3.828126-8.53125 8.53125-8.53125zm-265.046874 65.160156v-49.128906h97.222656v49.128906zm201.433593-40.597656v32.066406c0 4.703125-3.828125 8.53125-8.53125 8.53125h-80.675781v-49.128906h80.675781c4.703125 0 8.53125 3.828124 8.53125 8.53125zm-305.644531 32.066406v-32.066406c0-4.703126 3.828125-8.53125 8.53125-8.53125h80.679688v49.128906h-80.679688c-4.703125 0-8.53125-3.828125-8.53125-8.53125zm48.613281 249.015625c-26.804687 0-48.613281-21.808594-48.613281-48.613281 0-26.804688 21.808594-48.613282 48.613281-48.613282 26.804688 0 48.613281 21.808594 48.613281 48.613282 0 26.804687-21.808593 48.613281-48.613281 48.613281zm192.386719 0c-26.804688 0-48.613281-21.808594-48.613281-48.613281 0-26.804688 21.808593-48.613282 48.613281-48.613282s48.613281 21.808594 48.613281 48.613282c0 26.804687-21.808593 48.613281-48.613281 48.613281zm0-112.226563c-29.726562 0-54.746094 20.496094-61.691406 48.097656h-15.019532l-83.335937-97.226562h272.273437c4.140626 0 7.5-3.355469 7.5-7.5 0-4.140625-3.359374-7.5-7.5-7.5h-281.019531c-.039062-.460938-.0625-.925781-.0625-1.394531v-15.152344c0-.285156.230469-.515625.515625-.515625h336.679688c.285156 0 .515625.230469.515625.515625v15.152344c0 .46875-.023438.933593-.0625 1.394531h-24.496094c-4.144531 0-7.5 3.359375-7.5 7.5 0 4.144531 3.355469 7.5 7.5 7.5h15.753906l-83.339843 97.226562h-15.019532c-6.945312-27.601562-31.964844-48.097656-61.691406-48.097656zm192.386719 112.226563c-26.804688 0-48.613281-21.808594-48.613281-48.613281 0-26.804688 21.808593-48.613282 48.613281-48.613282 26.804687 0 48.613281 21.808594 48.613281 48.613282 0 26.804687-21.808594 48.613281-48.613281 48.613281zm0 0"/><path d="m472.4375 384.773438c-4.144531 0-7.5 3.359374-7.5 7.5 0 9.125-7.425781 16.546874-16.550781 16.546874s-16.546875-7.421874-16.546875-16.546874 7.421875-16.546876 16.546875-16.546876c4.144531 0 7.5-3.359374 7.5-7.5 0-4.140624-3.355469-7.5-7.5-7.5-17.394531 0-31.546875 14.152344-31.546875 31.546876 0 17.398437 14.152344 31.546874 31.546875 31.546874 17.398437 0 31.550781-14.148437 31.550781-31.546874 0-4.140626-3.359375-7.5-7.5-7.5zm0 0"/></symbol><symbol id="cultures" viewBox="0 0 512.002 512.002"><title>cultures</title><path d="m505.412 473.591-111.369-111.369 10.606-10.606c14.621-14.622 14.621-38.412 0-53.034l-42.581-42.581 138.95-138.95c14.621-14.621 14.621-38.412 0-53.033l-53.033-53.033c-7.083-7.082-16.5-10.983-26.517-10.983s-19.434 3.901-26.517 10.983l-234.41 234.411-138.95-138.95c-8.773-8.772-8.773-23.047 0-31.819l53.033-53.033c4.249-4.249 9.899-6.59 15.909-6.59s11.66 2.341 15.909 6.591l123.044 123.039c2.928 2.928 7.677 2.927 10.606-.001 2.929-2.929 2.929-7.677-.001-10.606l-123.041-123.041c-7.083-7.082-16.5-10.983-26.517-10.983s-19.433 3.901-26.516 10.983l-53.034 53.033c-7.082 7.083-10.983 16.5-10.983 26.517s3.901 19.434 10.983 26.517l138.95 138.95-42.579 42.579c-7.082 7.083-10.983 16.5-10.983 26.517 0 10.018 3.901 19.435 10.983 26.518l10.606 10.606-111.367 111.368c-4.25 4.249-6.591 9.899-6.591 15.91s2.341 11.661 6.59 15.909c4.249 4.25 9.899 6.591 15.91 6.591s11.661-2.341 15.91-6.59l111.37-111.369 10.606 10.605c7.083 7.083 16.5 10.984 26.517 10.984s19.434-3.901 26.517-10.983l42.581-42.581 42.582 42.581c7.083 7.082 16.5 10.983 26.517 10.983s19.434-3.901 26.517-10.983l10.606-10.606 111.37 111.368c4.249 4.25 9.899 6.591 15.91 6.591s11.661-2.341 15.909-6.59c4.25-4.249 6.591-9.899 6.591-15.91s-2.344-11.661-6.593-15.91zm-79.549-58.335 10.606 10.606-10.606 10.606-10.606-10.606zm-21.214-.002-10.606-10.606 10.606-10.606 10.606 10.606zm-307.9-10.606 10.606-10.606 10.606 10.606-10.606 10.606zm-.001 21.214-10.606 10.606-10.606-10.606 10.606-10.606zm-68.943 68.943c-1.416 1.416-3.3 2.196-5.303 2.196s-3.887-.78-5.304-2.197c-1.416-1.416-2.196-3.3-2.196-5.303s.78-3.887 2.197-5.303l47.73-47.73 10.606 10.606zm100.763-100.763-10.606-10.606 10.607-10.607 10.606 10.606zm74.245-.001c-4.249 4.25-9.899 6.591-15.909 6.591s-11.66-2.341-15.909-6.591l-53.033-53.032c-8.773-8.772-8.773-23.047 0-31.819l287.598-287.598c4.249-4.25 9.899-6.591 15.909-6.591s11.66 2.341 15.909 6.59c0 .001 53.033 53.034 53.033 53.034 8.773 8.772 8.773 23.046 0 31.818zm138.196 0c-8.771 8.773-23.047 8.773-31.818 0l-42.582-42.581 84.852-84.852 42.581 42.581c8.773 8.772 8.773 23.047 0 31.819zm42.427-21.212 10.607 10.606-10.606 10.606-10.606-10.606zm111.369 121.976c-1.416 1.416-3.3 2.196-5.303 2.196s-3.887-.78-5.303-2.197l-47.73-47.729 10.606-10.606 47.73 47.73c1.416 1.416 2.196 3.3 2.196 5.303s-.779 3.886-2.196 5.303z"/><path d="m256.002 90.001c24.813 0 45-20.187 45-45s-20.187-45-45-45-45 20.187-45 45 20.186 45 45 45zm0-75c16.542 0 30 13.458 30 30s-13.458 30-30 30-30-13.458-30-30 13.458-30 30-30z"/></symbol><symbol id="actor" viewBox="0 0 511.984 511.984"><title>actor</title><path d="m159.256 158.827c0-7.725-4.227-14.01-9.423-14.01s-9.423 6.285-9.423 14.01 4.227 14.01 9.423 14.01 9.423-6.285 9.423-14.01z"/><path d="m245.87 172.837c5.196 0 9.423-6.285 9.423-14.01s-4.227-14.01-9.423-14.01-9.423 6.285-9.423 14.01 4.227 14.01 9.423 14.01z"/><path d="m197.849 219.843c11.852 0 22.794-6.92 27.877-17.629 1.776-3.742.182-8.215-3.561-9.991-3.741-1.777-8.215-.182-9.991 3.56-2.612 5.504-8.235 9.06-14.325 9.06s-11.713-3.556-14.325-9.06c-1.776-3.742-6.249-5.337-9.991-3.56-3.742 1.776-5.336 6.249-3.561 9.991 5.083 10.709 16.025 17.629 27.877 17.629z"/><path d="m440.422 57.354h-58.086c-4.142 0-7.5 3.358-7.5 7.5s3.358 7.5 7.5 7.5h50.586v81.23c0 38.365-24.343 72.606-60.573 85.206l-.093.032c-1.337-2.283-3.031-4.518-5.181-6.668-7.692-7.692-16.842-9.516-25.104-5.006-3.784 2.066-7.154 5.431-9.982 9.506-33.164-14.024-55.067-46.686-55.067-83.07v-81.23h75.414c4.142 0 7.5-3.358 7.5-7.5s-3.358-7.5-7.5-7.5h-23.928c-2.388-11.436-6.868-20.508-13.371-27.002-16.936-16.945-38.356-10.224-51.365-1.819-12.537-13.51-50.506-40.768-143.578-22.336-27.437 5.435-44.121 22.019-49.588 49.291-4.531 22.597-1.125 49.08 2.17 74.69.617 4.8 1.208 9.396 1.738 13.898-6.335 5.515-10.352 13.63-10.352 22.671 0 14.102 9.766 25.96 22.888 29.182.136 4.046.296 8.089.502 12.12 1.219 23.647 14.768 43.785 34.392 54.236-13.843 14.893-36.13 49.767-36.421 119.988-2.254 6.278-7.929 25.39 2.184 35.502 4.671 4.672 11.826 6.09 18.793 6.09 3.821 0 7.581-.428 10.848-.979.171 3.019.393 6.134.675 9.32.345 3.901 3.619 6.839 7.462 6.839.222 0 .445-.01.67-.03 4.126-.365 7.174-4.006 6.809-8.132-2.113-23.86-.615-44.131-.437-46.36.033-.286.055-.576.055-.871 0-2.815.164-5.793.455-8.872h129.553l.763 9.529c.046.527 4.276 51.019-8.708 89.275h-3.179c-.023 0-.045-.002-.067-.002h-32.321c2.562-18.215 5.422-59.039-15.821-80.281-1.406-1.407-3.314-2.197-5.303-2.197s-3.897.79-5.303 2.197c-21.242 21.242-18.382 62.067-15.82 80.281h-32.327c-.023 0-.045.002-.067.002h-3.173c-1.485-4.381-2.81-9.127-3.955-14.171-.917-4.039-4.938-6.571-8.975-5.653-4.04.917-6.57 4.935-5.653 8.975 1.301 5.726 2.823 11.135 4.541 16.144-8.212 5.56-13.62 14.963-13.62 25.605 0 4.142 3.358 7.5 7.5 7.5h64.611c4.142 0 7.5-3.358 7.5-7.5v-23.402c0-.181-.107-1.289-.162-1.549-.002-.008-.002-.017-.004-.026-2.841-13.258-6.632-48.296 4.907-68.544 11.521 20.214 7.761 55.168 4.923 68.471-.119.531-.187 1.081-.187 1.647v23.402c0 4.142 3.358 7.5 7.5 7.5h64.61c4.142 0 7.5-3.358 7.5-7.5 0-10.641-5.407-20.043-13.618-25.604 14.186-41.277 9.814-93.586 9.618-95.825l-1.31-16.37c-.004-.052-.009-.104-.014-.156-1.648-16.299-6.157-30.488-10.393-40.825 6.031 1.566 13.229 2.813 21.163 2.983 20.418.438 49.591-6.444 73.116-41.525 6.943-7.233 15.481-20.354 15.432-33.829l1.081-.376c42.256-14.695 70.646-54.63 70.646-99.374v-88.73c.001-4.14-3.357-7.498-7.499-7.498zm-310.037 439.63c2.676-4.984 7.933-8.382 13.97-8.4h33.758v8.4zm87.205 0v-8.4h33.758c6.037.018 11.294 3.416 13.97 8.4zm104.975-230.938c-10.671 4.444-30.593 10.484-43.492 5.135-3.674-1.524-6.58-3.916-8.794-7.219 12.912-5.962 23.719-16.047 30.473-28.755 7.38 6.01 15.637 11.059 24.609 14.936-1.804 5.4-2.792 10.958-2.796 15.903zm-243.503-99.297c0-5.642 3.121-10.562 7.721-13.142-.227 8.692-.29 17.424-.194 26.157-4.492-2.607-7.527-7.458-7.527-13.015zm13.938-30.032c-1.467.054-2.906.214-4.312.472-.363-2.918-.743-5.879-1.135-8.923-3.14-24.408-6.386-49.648-2.34-69.828 4.279-21.341 16.289-33.265 37.796-37.526 30.922-6.124 74.642-10.557 107.322 3.1 19.034 7.955 25.366 18.508 25.383 18.534 1.098 1.991 3.039 3.376 5.277 3.767 2.24.393 4.536-.254 6.242-1.754.057-.05 5.904-5.077 13.662-7.89 9.506-3.447 17.203-2.044 23.537 4.294 3.868 3.862 6.737 9.362 8.581 16.393h-43.591c-4.142 0-7.5 3.358-7.5 7.5v19.527c-3.878-1.326-7.979-2.027-12.15-2.027-8.928 0-17.59 3.276-24.39 9.226-7.628 6.677-17.405 10.354-27.53 10.354-10.132 0-19.912-3.677-27.539-10.352-9.685-8.481-22.826-11.338-35.15-7.643-12.364 3.706-21.796 13.355-25.231 25.811-2.809 10.177-8.011 22.904-16.932 26.965zm9.432 70.565c-.988-19.359-1.16-38.939-.513-58.27 10.062-5.816 17.609-17.651 22.472-35.273 2.054-7.448 7.691-13.217 15.078-15.431 7.349-2.204 15.186-.498 20.963 4.561 10.363 9.071 23.652 14.066 37.419 14.066 13.76 0 27.046-4.996 37.408-14.066 4.123-3.607 9.141-5.514 14.512-5.514 4.345 0 8.552 1.268 12.15 3.582v52.648c0 26.784 10.181 51.838 27.404 70.79-7.475 17.539-24.608 29.622-43.907 30.528-31.563 1.492-63.57 1.492-95.133 0-25.944-1.223-46.517-21.697-47.853-47.621zm125.84 63.272c-4.177 8.481-16.42 14.811-30.423 14.811s-26.245-6.33-30.422-14.811c10.124.3 20.272.467 30.426.467 10.149 0 20.296-.167 30.419-.467zm-130.058 136.614c-2.102-2.102-1.643-9.296.148-16.014h18.652c-.18 4.237-.325 9.931-.261 16.588-8.865 1.77-16.618 1.348-18.539-.574zm157.031-101.573c-2.908-1.729-6.724-1.314-9.193 1.216-1.421 1.456-2.129 3.344-2.13 5.231-.001 1.417.396 2.833 1.19 4.066 1.06 1.746 11.535 19.457 15.706 43.673h-125.523c2.098-9.642 4.621-16.469 4.663-16.583 1.451-3.877-.514-8.197-4.391-9.651-3.878-1.456-8.202.51-9.656 4.389-.191.509-4.698 12.636-7.041 28.234-.513 3.422-.87 6.752-1.099 9.985h-17.27c.785-33.287 6.853-61.143 18.067-82.882 7.141-13.843 14.537-21.521 18.716-25.125 3.965.948 8.074 1.54 12.293 1.738.638.03 1.279.05 1.918.079 3.586 17.209 23.003 30.4 46.353 30.4s42.768-13.191 46.354-30.399c.64-.029 1.282-.049 1.921-.079 3.238-.152 6.427-.552 9.551-1.173 3.949 7.618 9.871 13.104 17.687 16.337 20.345 8.415 47.545-1.89 57.074-6.074l13.174 6.325c-36.557 46.577-84.323 22.456-88.364 20.293zm82.325-39.833c.061-3.272.834-7.753 2.666-12.612 2.333-6.187 5.751-11.105 8.922-12.836 1.099-.6 3.146-1.716 7.31 2.447 9.963 9.963 1.72 23.694-3.478 30.405z"/><path d="m334.037 141.402c0 4.142 3.358 7.5 7.5 7.5s7.5-3.358 7.5-7.5c0-16.351-13.303-29.654-29.654-29.654s-29.654 13.303-29.654 29.654c0 4.142 3.358 7.5 7.5 7.5s7.5-3.358 7.5-7.5c0-8.08 6.574-14.654 14.654-14.654s14.654 6.574 14.654 14.654z"/><path d="m368.308 148.902c4.142 0 7.5-3.358 7.5-7.5 0-8.08 6.574-14.654 14.654-14.654s14.654 6.574 14.654 14.654c0 4.142 3.358 7.5 7.5 7.5s7.5-3.358 7.5-7.5c0-16.351-13.303-29.654-29.654-29.654s-29.654 13.303-29.654 29.654c0 4.142 3.358 7.5 7.5 7.5z"/><path d="m354.922 199.185c11.849 0 23.697-4.51 32.717-13.53 2.929-2.929 2.929-7.677 0-10.606s-7.678-2.929-10.606 0c-12.192 12.191-32.028 12.192-44.221 0-2.929-2.929-7.678-2.929-10.606 0-2.929 2.929-2.929 7.677 0 10.606 9.019 9.02 20.868 13.53 32.716 13.53z"/></symbol><symbol id="studio" viewBox="0 0 480 480"><title>studio</title><path d="m480 80v-16h-320c-8.832031.011719-15.988281 7.167969-16 16h-32v-24c0-30.929688-25.070312-56-56-56s-56 25.070312-56 56v144c0 30.929688 25.070312 56 56 56s56-25.070312 56-56v-104h32c.011719 8.832031 7.167969 15.988281 16 16h320v-16h-280v-16zm-464-24c0-22.089844 17.910156-40 40-40s40 17.910156 40 40v40h-80zm80 144c0 22.089844-17.910156 40-40 40s-40-17.910156-40-40v-88h80zm88-104h-24v-16h24zm0 0"/><path d="m32 192h16v16h-16zm0 0"/><path d="m64 192h16v16h-16zm0 0"/><path d="m32 160h16v16h-16zm0 0"/><path d="m64 160h16v16h-16zm0 0"/><path d="m32 128h16v16h-16zm0 0"/><path d="m64 128h16v16h-16zm0 0"/><path d="m432 152v304c-.003906 4.417969-3.582031 7.996094-8 8h-80c-4.417969-.003906-7.996094-3.582031-8-8v-24c13.25-.015625 23.984375-10.75 24-24v-32h8c13.25-.015625 23.984375-10.75 24-24v-64c8.832031-.011719 15.988281-7.167969 16-16v-8c0-75.109375-60.890625-136-136-136s-136 60.890625-136 136v8c.011719 8.832031 7.167969 15.988281 16 16v64c.015625 13.25 10.75 23.984375 24 24h8v32c.015625 13.25 10.75 23.984375 24 24h16c13.25-.015625 23.984375-10.75 24-24v-80c-.015625-13.25-10.75-23.984375-24-24h-16c-13.25.015625-23.984375 10.75-24 24v32h-8c-4.417969-.003906-7.996094-3.582031-8-8v-64h8c13.25-.015625 23.984375-10.75 24-24 0-39.765625 32.234375-72 72-72s72 32.234375 72 72c.015625 13.25 10.75 23.984375 24 24h8v64c-.003906 4.417969-3.582031 7.996094-8 8h-8v-32c-.015625-13.25-10.75-23.984375-24-24h-16c-13.25.015625-23.984375 10.75-24 24v80c.015625 13.25 10.75 23.984375 24 24v24c.015625 13.25 10.75 23.984375 24 24h80c13.25-.015625 23.984375-10.75 24-24v-304c.003906-4.417969 3.582031-7.996094 8-8h24v-16h-24c-13.25.015625-23.984375 10.75-24 24zm-232 176c.003906-4.417969 3.582031-7.996094 8-8h16c4.417969.003906 7.996094 3.582031 8 8v80c-.003906 4.417969-3.582031 7.996094-8 8h-16c-4.417969-.003906-7.996094-3.582031-8-8zm160-64c0-48.601562-39.398438-88-88-88s-88 39.398438-88 88c-.003906 4.417969-3.582031 7.996094-8 8h-24v-8c0-66.273438 53.726562-120 120-120s120 53.726562 120 120v8h-24c-4.417969-.003906-7.996094-3.582031-8-8zm-48 144v-80c.003906-4.417969 3.582031-7.996094 8-8h16c4.417969.003906 7.996094 3.582031 8 8v80c-.003906 4.417969-3.582031 7.996094-8 8h-16c-4.417969-.003906-7.996094-3.582031-8-8zm0 0"/></symbol><symbol id="music-and-multimedia" viewBox="0 0 514 514"><title>music-and-multimedia</title><path d="m514 257v-181c0-41.355-33.645-75-75-75h-73c-41.355 0-75 33.645-75 75v181c0 56.119 41.863 102.637 96 109.983v116.017h-72.67c-8.284 0-15 6.716-15 15s6.716 15 15 15h166.966c8.284 0 15-6.716 15-15s-6.716-15-15-15h-64.296v-115.999c54.689-7.287 97-53.836 97-110.001zm-193-181c0-24.813 20.187-45 45-45h73c24.813 0 45 20.187 45 45v38h-163zm81 262c-39.537 0-72.528-28.481-79.585-66h23.585c8.284 0 15-6.716 15-15s-6.716-15-15-15h-25v-34h25c8.284 0 15-6.716 15-15s-6.716-15-15-15h-25v-34h163v34h-26c-8.284 0-15 6.716-15 15s6.716 15 15 15h26v34h-26c-8.284 0-15 6.716-15 15s6.716 15 15 15h24.567c-7.144 37.519-40.542 66-80.567 66z"/><path d="m240 174.798v-128.798c0-24.813-20.187-45-45-45h-150c-24.813 0-45 20.187-45 45v141c0 24.813 20.187 45 45 45h135.698l26.596 16.623c4.934 3.083 10.439 4.61 15.924 4.61 6.402 0 12.777-2.082 18.176-6.201 10.022-7.648 14.158-20.394 10.535-32.47zm-16.806 48.385-30.244-18.903c-2.384-1.49-5.139-2.28-7.95-2.28h-140c-8.271 0-15-6.729-15-15v-141c0-8.271 6.729-15 15-15h150c8.271 0 15 6.729 15 15v131c0 1.46.213 2.912.633 4.31z"/><path d="m137 138h-32c-8.284 0-15 6.716-15 15s6.716 15 15 15h32c8.284 0 15-6.716 15-15s-6.716-15-15-15z"/><path d="m161 66h-80c-8.284 0-15 6.716-15 15s6.716 15 15 15h80c8.284 0 15-6.716 15-15s-6.716-15-15-15z"/></symbol><symbol id="games" viewBox="0 0 512.039 512.039"><title>games</title><path d="m248.69 296.459c-4.143 0-7.5 3.358-7.5 7.5s3.357 7.5 7.5 7.5h14.64c4.143 0 7.5-3.358 7.5-7.5s-3.357-7.5-7.5-7.5z"/><path d="m222.578 244.789c-4.143 0-7.5 3.358-7.5 7.5s3.357 7.5 7.5 7.5h6.699c4.143 0 7.5-3.358 7.5-7.5s-3.357-7.5-7.5-7.5z"/><path d="m282.741 244.789c-4.143 0-7.5 3.358-7.5 7.5s3.357 7.5 7.5 7.5h6.699c4.143 0 7.5-3.358 7.5-7.5s-3.357-7.5-7.5-7.5z"/><path d="m330.411 236.237c0 13.011 10.585 23.597 23.597 23.597 3.593 0 6.998-.81 10.049-2.253-1.442 3.051-2.252 6.456-2.252 10.049 0 13.012 10.585 23.597 23.596 23.597 13.012 0 23.598-10.585 23.598-23.597 0-3.592-.81-6.998-2.252-10.049 3.051 1.442 6.456 2.253 10.048 2.253 13.012 0 23.598-10.585 23.598-23.597s-10.586-23.597-23.598-23.597c-3.592 0-6.998.81-10.048 2.252 1.442-3.051 2.252-6.456 2.252-10.048 0-13.012-10.586-23.597-23.598-23.597-13.011 0-23.596 10.585-23.596 23.597 0 3.592.81 6.998 2.252 10.048-3.051-1.442-6.457-2.252-10.049-2.252-13.012 0-23.597 10.586-23.597 23.597zm54.99 39.991c-4.739 0-8.596-3.856-8.596-8.597 0-4.74 3.856-8.597 8.596-8.597 4.741 0 8.598 3.856 8.598 8.597-.001 4.74-3.857 8.597-8.598 8.597zm-10.049-29.942c1.442-3.051 2.252-6.456 2.252-10.049s-.81-6.998-2.252-10.049c3.051 1.442 6.456 2.252 10.048 2.252 3.593 0 6.999-.81 10.05-2.253-1.442 3.051-2.252 6.457-2.252 10.049s.81 6.998 2.253 10.049c-3.051-1.443-6.458-2.253-10.051-2.253-3.592.002-6.997.812-10.048 2.254zm41.442-18.646c4.741 0 8.598 3.856 8.598 8.597 0 4.74-3.856 8.597-8.598 8.597-4.739 0-8.596-3.856-8.596-8.597.001-4.74 3.857-8.597 8.596-8.597zm-31.393-31.393c4.741 0 8.598 3.856 8.598 8.597 0 4.74-3.856 8.597-8.598 8.597-4.739 0-8.596-3.856-8.596-8.597s3.856-8.597 8.596-8.597zm-22.796 39.99c0 4.74-3.856 8.597-8.597 8.597s-8.597-3.856-8.597-8.597 3.856-8.597 8.597-8.597 8.597 3.857 8.597 8.597z"/><path d="m95.462 257.971h8.893v8.892c0 11.984 9.749 21.733 21.732 21.733s21.733-9.75 21.733-21.733v-8.892h8.893c11.983 0 21.732-9.75 21.732-21.733s-9.749-21.733-21.732-21.733h-8.893v-8.892c0-11.984-9.75-21.733-21.733-21.733s-21.732 9.75-21.732 21.733v8.892h-8.893c-11.983 0-21.733 9.75-21.733 21.733s9.75 21.733 21.733 21.733zm0-28.467h9.326c8.032 0 14.566-6.534 14.566-14.566v-9.326c0-3.713 3.021-6.733 6.732-6.733 3.713 0 6.733 3.021 6.733 6.733v9.326c0 8.032 6.534 14.566 14.566 14.566h9.326c3.712 0 6.732 3.021 6.732 6.733s-3.021 6.733-6.732 6.733h-9.326c-8.032 0-14.566 6.534-14.566 14.566v9.326c0 3.713-3.021 6.733-6.733 6.733s-6.732-3.021-6.732-6.733v-9.326c0-8.032-6.534-14.566-14.566-14.566h-9.326c-3.713 0-6.733-3.021-6.733-6.733s3.02-6.733 6.733-6.733z"/><path d="m495.264 335.719c-1.821-3.72-6.315-5.261-10.034-3.438-3.721 1.821-5.26 6.313-3.438 10.034l9.349 19.095c14.056 28.708 2.135 63.498-26.571 77.553-28.65 14.025-63.529 2.071-77.552-26.572l-25.867-52.832c1.635-4.459 2.473-9.332 2.473-14.019 0-22.519-18.32-40.84-40.84-40.84-18.433 0-34.157 12.38-39.118 29.109h-55.306c-5.087-17.152-21.122-29.109-39.118-29.109-22.52 0-40.841 18.321-40.841 40.84 0 4.686.834 9.547 2.474 14.019l-25.867 52.832c-14.025 28.646-48.908 40.597-77.552 26.572-28.647-14.027-40.596-48.909-26.571-77.553l41.876-85.529c13.638 21.737 37.617 35.071 63.328 35.071 41.197 0 74.714-33.517 74.714-74.714 0-10.098-2.067-20.48-6.431-30.309 10.676 2.729 21.511 4.104 32.396 4.104h58.489c10.884 0 21.719-1.376 32.392-4.104-4.09 9.213-6.43 19.534-6.43 30.308 0 41.197 33.517 74.714 74.714 74.714 26.422 0 50.091-13.971 63.33-35.075l17.134 34.995c1.82 3.72 6.309 5.26 10.034 3.438 3.721-1.821 5.26-6.313 3.438-10.034l-22.535-46.027c2.15-6.962 3.313-14.353 3.313-22.011 0-41.197-33.517-74.714-74.714-74.714-21.707 0-41.274 9.312-54.937 24.143-14.904 6.21-30.283 9.367-45.739 9.367h-3.033v-7.951c0-9.8-7.973-17.773-17.772-17.773h-.32v-109.614c0-4.142-3.357-7.5-7.5-7.5s-7.5 3.358-7.5 7.5v109.614h-1.562c-9.8 0-17.772 7.973-17.772 17.773v7.951h-3.029c-15.459 0-30.841-3.158-45.746-9.37-13.663-14.829-33.228-24.139-54.933-24.139-41.197 0-74.714 33.517-74.714 74.714 0 7.66 1.163 15.053 3.314 22.016l-47.28 96.559c-17.672 36.093-2.642 79.951 33.448 97.62 36.094 17.673 79.95 2.642 97.62-33.448l21.851-44.629c7.399 7.423 17.627 12.023 28.911 12.023 10.3 0 19.714-3.841 26.906-10.154h22.364c4.143 0 7.5-3.358 7.5-7.5s-3.357-7.5-7.5-7.5h-11.549c1.683-4.042 2.667-8.354 2.99-12.417h52.12c.333 4.22 1.373 8.532 2.99 12.417h-11.551c-4.143 0-7.5 3.358-7.5 7.5s3.357 7.5 7.5 7.5h22.367c7.192 6.314 16.606 10.154 26.906 10.154 11.284 0 21.512-4.601 28.911-12.023l21.851 44.629c17.672 36.094 61.531 51.118 97.62 33.448 36.135-17.692 51.14-61.484 33.448-97.62zm-109.332-159.196c32.927 0 59.714 26.788 59.714 59.714 0 32.792-26.639 59.714-59.714 59.714-32.927 0-59.714-26.788-59.714-59.714 0-32.752 26.618-59.714 59.714-59.714zm-141.136 10.559c0-1.529 1.244-2.773 2.772-2.773h16.882c1.528 0 2.772 1.244 2.772 2.773v7.951h-22.427v-7.951zm-118.709-10.559c32.898 0 59.714 26.744 59.714 59.714 0 32.926-26.787 59.714-59.714 59.714-33.136 0-59.714-27-59.714-59.714 0-32.926 26.787-59.714 59.714-59.714zm37.313 169.017c0-14.248 11.592-25.84 25.841-25.84 13.138 0 24.815 10.085 25.779 24.162.002.034.006.067.008.101.953 14.675-10.822 27.418-25.787 27.418-14.207-.001-25.841-11.568-25.841-25.841zm159.383 25.84c-14.875 0-26.747-12.634-25.787-27.418.002-.034.005-.067.008-.101.939-13.712 12.243-24.162 25.779-24.162 14.248 0 25.84 11.592 25.84 25.84-.001 14.214-11.57 25.841-25.84 25.841z"/></symbol><symbol id="rubik" viewBox="0 0 512 512"><title>rubik</title><g> <g> <path d="M431.963,197.403c-5.522,0-10,4.477-10,10v0.236c0,5.523,4.478,10,10,10c5.522,0,10-4.477,10-10v-0.236 C441.963,201.881,437.486,197.403,431.963,197.403z"/> </g> </g><g> <g> <path d="M479.034,132.914c-0.003-0.409-0.027-0.817-0.081-1.226c-0.003-0.023-0.009-0.045-0.012-0.069 c-0.052-0.368-0.128-0.734-0.222-1.1c-0.024-0.098-0.053-0.194-0.081-0.291c-0.085-0.294-0.185-0.584-0.298-0.873 c-0.038-0.096-0.072-0.193-0.112-0.288c-0.155-0.361-0.326-0.718-0.527-1.066c-0.001-0.001-0.002-0.003-0.002-0.004 c-0.201-0.349-0.426-0.675-0.661-0.99c-0.062-0.082-0.128-0.16-0.192-0.24c-0.193-0.243-0.395-0.475-0.607-0.695 c-0.069-0.072-0.139-0.145-0.211-0.216c-0.27-0.263-0.549-0.513-0.842-0.741c-0.019-0.014-0.035-0.03-0.054-0.044 c-0.327-0.251-0.668-0.476-1.02-0.683c-0.024-0.015-0.046-0.033-0.071-0.048l-213.042-123c-3.094-1.787-6.906-1.786-10,0 l-213.043,123c-0.023,0.014-0.044,0.031-0.066,0.045c-0.355,0.208-0.699,0.435-1.027,0.688c-0.016,0.011-0.028,0.024-0.043,0.035 c-0.297,0.231-0.58,0.484-0.852,0.751c-0.071,0.069-0.14,0.141-0.209,0.212c-0.213,0.222-0.416,0.455-0.609,0.699 c-0.065,0.08-0.131,0.157-0.191,0.239c-0.235,0.314-0.459,0.642-0.661,0.99c-0.001,0.001-0.001,0.003-0.002,0.004 c-0.201,0.349-0.372,0.706-0.526,1.066c-0.041,0.095-0.075,0.192-0.113,0.288c-0.113,0.289-0.213,0.579-0.298,0.873 c-0.028,0.097-0.056,0.193-0.081,0.291c-0.094,0.364-0.17,0.73-0.221,1.098c-0.004,0.024-0.01,0.047-0.013,0.071 c-0.054,0.408-0.078,0.817-0.081,1.225c0,0.029-0.006,0.057-0.006,0.085v246.001c0,3.573,1.906,6.874,5,8.66l213.043,123 c0.025,0.015,0.053,0.024,0.078,0.038c0.354,0.201,0.719,0.384,1.099,0.541c0.025,0.011,0.052,0.018,0.077,0.028 c0.341,0.138,0.691,0.254,1.05,0.354c0.101,0.027,0.2,0.052,0.3,0.077c0.295,0.072,0.594,0.131,0.898,0.177 c0.104,0.016,0.206,0.035,0.309,0.047c0.391,0.046,0.786,0.077,1.189,0.077c0.402,0,0.798-0.031,1.189-0.077 c0.103-0.012,0.206-0.031,0.309-0.047c0.305-0.046,0.604-0.104,0.899-0.177c0.1-0.025,0.199-0.05,0.3-0.077 c0.358-0.1,0.709-0.217,1.05-0.354c0.025-0.01,0.052-0.018,0.077-0.028c0.38-0.157,0.745-0.34,1.099-0.541 c0.025-0.014,0.053-0.023,0.078-0.038l213.042-123c3.094-1.786,5-5.087,5-8.66V133 C479.04,132.971,479.035,132.943,479.034,132.914z M431.965,226.37c-5.522,0-10,4.477-10,10v35.262l-49.445,28.547v-99.906 l86.52-49.953v99.906l-17.075,9.858V236.37C441.965,230.847,437.488,226.37,431.965,226.37z M255.998,21.546L342.52,71.5 l-86.522,49.953L169.477,71.5L255.998,21.546z M139.475,423.18l-86.52-49.953V273.32l18.373,10.608v35.262c0,5.523,4.478,10,10,10 c5.522,0,10-4.477,10-10v-23.715l48.147,27.798V423.18z M139.475,300.18l-86.52-49.954V150.32l86.52,49.953V300.18z M62.956,133 l86.521-49.953L235.998,133l-86.521,49.953L62.956,133z M245.998,484.68l-86.523-49.954v-99.907l86.523,49.955V484.68z M245.999,361.681l-86.523-49.954V211.82l86.523,49.954V361.681z M255.998,244.454L169.477,194.5l86.521-49.953L342.52,194.5 L255.998,244.454z M352.52,434.727l-86.522,49.953v-99.906l86.522-49.954V434.727z M352.52,311.725l-86.522,49.955v-99.907 l86.522-49.954V311.725z M275.997,133l86.523-49.953L449.04,133l-86.52,49.953L275.997,133z M459.04,373.227l-86.52,49.953 v-99.907l86.52-49.953V373.227z"/> </g> </g><g> <g> <path d="M81.326,337.921c-5.522,0-10,4.477-10,10v0.236c0,5.523,4.478,10,10,10c5.522,0,10-4.477,10-10v-0.236 C91.326,342.398,86.849,337.921,81.326,337.921z"/> </g> </g></symbol><symbol id="abacus" viewBox="0 0 511.999 511.999"><title>abacus</title><g> <g> <path d="M501.999,404.762H486.37V34.134c0-5.522-4.477-10-10-10h-47.08c-5.523,0-10,4.477-10,10v21.356H92.709V34.134 c0-5.522-4.477-10-10-10h-47.08c-5.523,0-10,4.477-10,10v370.628H10c-5.523,0-10,4.477-10,10v63.102c0,5.523,4.477,10,10,10 h491.999c5.523,0,10-4.477,10-10v-63.102C511.999,409.241,507.522,404.762,501.999,404.762z M45.629,44.134h27.079v21.356 c0,5.522,4.477,10,10,10H429.29c5.523,0,10-4.478,10-10V44.134h27.079v360.628H439.29V112.569c0-5.522-4.477-10-10-10H82.709 c-5.523,0-10,4.478-10,10v292.193h-27.08V44.134z M261.159,297.754c10.428,0,19.849-4.395,26.507-11.43 c6.659,7.035,16.079,11.43,26.507,11.43c10.428,0,19.848-4.395,26.507-11.43c6.659,7.035,16.079,11.43,26.507,11.43 c16.664,0,30.756-11.223,35.115-26.507h16.99v67.416h-56.478v0c-4.359-15.285-18.451-26.508-35.115-26.508 s-30.756,11.223-35.115,26.508H241.61c-4.359-15.285-18.451-26.508-35.115-26.508c-10.428,0-19.848,4.395-26.507,11.43 c-6.659-7.035-16.079-11.43-26.507-11.43c-16.664,0-30.756,11.223-35.115,26.508H92.709v-67.416h133.335 C230.403,286.532,244.495,297.754,261.159,297.754z M244.651,261.248c0-9.102,7.405-16.507,16.507-16.507 s16.507,7.405,16.507,16.507c0,9.101-7.405,16.507-16.507,16.507S244.651,270.35,244.651,261.248z M297.665,261.248 c0-9.102,7.405-16.507,16.507-16.507s16.507,7.405,16.507,16.507c0,9.101-7.405,16.507-16.507,16.507 S297.665,270.35,297.665,261.248z M350.679,261.248c0-9.102,7.405-16.507,16.507-16.507s16.507,7.405,16.507,16.507 c0,9.101-7.405,16.507-16.507,16.507S350.679,270.35,350.679,261.248z M344.206,348.663c0,9.102-7.405,16.507-16.507,16.507 s-16.507-7.405-16.507-16.507c0-9.103,7.405-16.508,16.507-16.508S344.206,339.561,344.206,348.663z M223.002,348.663 c0,9.102-7.405,16.507-16.507,16.507s-16.507-7.405-16.507-16.507c0-9.103,7.405-16.508,16.507-16.508 C215.598,332.155,223.002,339.561,223.002,348.663z M169.989,348.663c0,9.102-7.405,16.507-16.507,16.507 s-16.507-7.405-16.507-16.507c0-9.103,7.405-16.508,16.507-16.508S169.989,339.561,169.989,348.663z M118.367,358.663 c4.359,15.284,18.451,26.507,35.115,26.507c10.428,0,19.848-4.395,26.507-11.43c6.659,7.035,16.079,11.43,26.507,11.43 c16.664,0,30.756-11.223,35.115-26.507h50.974c4.359,15.284,18.451,26.507,35.115,26.507s30.756-11.223,35.115-26.507h56.477v46.1 H92.709v-46.1H118.367z M402.302,251.248c-4.359-15.284-18.451-26.507-35.115-26.507c-10.428,0-19.848,4.395-26.507,11.43 c-6.659-7.035-16.079-11.43-26.507-11.43s-19.848,4.395-26.507,11.43c-6.659-7.035-16.079-11.43-26.507-11.43 c-16.664,0-30.756,11.223-35.115,26.507H92.709v-67.416h25.658c4.359,15.285,18.451,26.508,35.115,26.508 c10.428,0,19.848-4.395,26.507-11.43c6.659,7.035,16.079,11.43,26.507,11.43c16.664,0,30.756-11.223,35.115-26.508h50.974 c4.359,15.285,18.451,26.508,35.115,26.508s30.756-11.223,35.115-26.508h56.477v67.416H402.302z M327.698,137.324 c-16.664,0-30.756,11.223-35.115,26.507H241.61c-4.359-15.284-18.451-26.507-35.115-26.507c-10.428,0-19.848,4.395-26.507,11.43 c-6.659-7.035-16.079-11.43-26.507-11.43c-16.664,0-30.756,11.223-35.115,26.507H92.709V122.57H419.29v41.262h-56.477 C358.454,148.548,344.362,137.324,327.698,137.324z M344.206,173.832c0,9.103-7.405,16.508-16.507,16.508 c-9.102-0.001-16.507-7.406-16.507-16.508s7.405-16.507,16.507-16.507S344.206,164.73,344.206,173.832z M223.003,173.832 c0,9.103-7.405,16.508-16.507,16.508c-9.103-0.001-16.507-7.406-16.507-16.508s7.405-16.507,16.507-16.507 C215.598,157.324,223.003,164.73,223.003,173.832z M169.989,173.832c0,9.103-7.405,16.508-16.507,16.508 c-9.102-0.001-16.507-7.406-16.507-16.508s7.405-16.507,16.507-16.507C162.584,157.324,169.989,164.73,169.989,173.832z M491.999,467.866H20v-43.102h471.999V467.866z"/> </g> </g><g> <g> <path d="M96.439,444.359c-0.129-0.64-0.32-1.27-0.57-1.869c-0.25-0.601-0.56-1.181-0.92-1.73c-0.37-0.54-0.78-1.06-1.24-1.52 c-0.47-0.461-0.98-0.881-1.52-1.24c-0.55-0.36-1.13-0.67-1.73-0.92c-0.6-0.25-1.23-0.44-1.87-0.57c-1.29-0.26-2.62-0.26-3.91,0 c-0.64,0.13-1.27,0.32-1.87,0.57c-0.6,0.25-1.19,0.56-1.73,0.92c-0.55,0.359-1.06,0.779-1.52,1.24 c-0.461,0.46-0.88,0.98-1.24,1.52c-0.36,0.55-0.67,1.13-0.92,1.73c-0.25,0.6-0.44,1.23-0.57,1.869c-0.13,0.65-0.2,1.301-0.2,1.95 c0,0.66,0.07,1.31,0.2,1.96c0.13,0.641,0.32,1.27,0.57,1.87c0.25,0.601,0.56,1.18,0.92,1.72c0.37,0.551,0.78,1.061,1.24,1.521 c1.86,1.87,4.44,2.939,7.07,2.939c0.66,0,1.31-0.069,1.96-0.199c0.64-0.13,1.27-0.32,1.87-0.57c0.6-0.25,1.18-0.56,1.73-0.92 c0.54-0.37,1.05-0.78,1.52-1.25c0.46-0.46,0.87-0.97,1.24-1.521c0.36-0.54,0.67-1.119,0.92-1.72c0.25-0.6,0.44-1.229,0.57-1.87 c0.13-0.649,0.19-1.3,0.19-1.96C96.629,445.66,96.569,445.009,96.439,444.359z"/> </g> </g><g> <g> <path d="M425.365,436.314H126.12c-5.523,0-10,4.478-10,10c0,5.522,4.477,10,10,10h299.245c5.523,0,10-4.478,10-10 C435.365,440.793,430.888,436.314,425.365,436.314z"/> </g> </g></symbol></svg>