<svg xmlns="http://www.w3.org/2000/svg" style="display: none;"><symbol id="certificate" viewBox="0 0 512 512"><title>certificate</title><path d="m494.5 34.936h-477c-9.649 0-17.5 7.851-17.5 17.5v61.595c0 9.697 15 9.697 15 0v-61.595c0-1.378 1.121-2.5 2.5-2.5h477c1.379 0 2.5 1.122 2.5 2.5v365.739c0 1.378-1.121 2.5-2.5 2.5h-96.112v-15.606h75.434c4.143 0 7.5-3.358 7.5-7.5v-78.539c0-9.697-15-9.697-15 0v71.039h-67.934v-33.277c.244.021.49.042.721.063 6.226.547 13.97 1.228 19.335-4.147 5.359-5.369 4.681-13.121 4.136-19.35-.587-6.685.045-8.515 5.183-12.786 13.229-11 13.475-22.778 0-33.98-5.138-4.274-5.767-6.102-5.183-12.788 1.468-16.777-6.368-24.999-23.471-23.496-6.675.586-8.486-.048-12.742-5.187-10.983-13.26-22.769-13.505-33.956 0-4.256 5.138-6.066 5.775-12.741 5.187-16.789-1.475-24.97 6.405-23.472 23.496.584 6.687-.045 8.514-5.183 12.788-13.229 10.999-13.474 22.779 0 33.98 5.138 4.274 5.767 6.102 5.183 12.788-1.575 17.969 7.007 24.917 24.19 23.433v33.278h-294.709v-309.53h420.643v198.489c0 9.697 15 9.697 15 0v-205.989c0-4.142-3.357-7.5-7.5-7.5h-435.643c-4.143 0-7.5 3.358-7.5 7.5v324.528c0 4.142 3.357 7.5 7.5 7.5h302.209v15.606h-322.888c-1.379 0-2.5-1.122-2.5-2.5v-266.145c0-9.697-15-9.697-15 0v266.145c0 9.649 7.851 17.5 17.5 17.5h322.888v33.95c1.068 6.164 4.623 8.431 10.663 6.8l18.337-8.529 18.337 8.529c4.537 2.11 10.663-1.225 10.663-6.8v-33.95h96.112c9.649 0 17.5-7.851 17.5-17.5v-365.739c0-9.65-7.851-17.5-17.5-17.5zm-156.145 306.975c-7.508.661-7.872.259-7.216-7.245 1.008-11.517-1.641-18.237-10.536-25.631-6.086-5.061-6.085-5.85 0-10.911 8.895-7.394 11.545-14.114 10.536-25.63-.656-7.505-.292-7.903 7.216-7.246 11.518 1.015 18.229-1.654 25.606-10.561 5.041-6.084 5.812-6.084 10.853 0 7.379 8.907 14.088 11.572 25.606 10.561 7.509-.661 7.872-.259 7.216 7.245-1.008 11.517 1.641 18.236 10.536 25.63 6.085 5.061 6.088 5.852-.001 10.912-8.895 7.395-11.545 14.112-10.536 25.629.659 7.504.293 7.907-7.214 7.247-4.711-.414-10.055-.884-14.759 1.07-4.553 1.891-7.754 5.754-10.849 9.491-1.458 1.76-4.119 4.973-5.427 5.548-1.307-.575-3.968-3.788-5.426-5.548-3.095-3.736-6.295-7.6-10.849-9.491-4.854-1.48-9.773-1.837-14.756-1.07zm34.196 110.914c-2.006-.933-4.32-.933-6.326 0l-10.837 5.041v-92.349c3.559 3.913 7.95 7.546 14 7.546s10.441-3.632 14-7.545v92.348z"/><path d="m97.263 143.321h258.547c9.697 0 9.697-15 0-15h-258.547c-9.698 0-9.698 15 0 15z"/><path d="m422.237 181.439c0-4.142-3.357-7.5-7.5-7.5h-317.474c-9.697 0-9.697 15 0 15h317.475c4.142 0 7.499-3.358 7.499-7.5z"/><path d="m285.137 227.056c0-4.142-3.357-7.5-7.5-7.5h-180.374c-9.697 0-9.697 15 0 15h180.374c4.142 0 7.5-3.358 7.5-7.5z"/><path d="m186.651 331.598c-4.089.007-8.179.012-12.268.015-7.867.006-12.198-2.091-13.805-10.433-1.467-7.615-12.451-6.645-14.464 0-.891 2.943-5.391 11.368-9.322 10.679-2.083-.365-2.993-3.578-3.763-5.242-1.499-3.239-2.591-6.672-3.526-10.112-3.948-14.534-4.736-29.709-7.206-44.517-1.432-8.587-14.521-6.159-14.732 1.994-.672 25.971-4.918 51.586-14.164 75.929-3.431 9.033 11.064 12.939 14.464 3.988 3.565-9.386 6.395-18.997 8.591-28.751 1.178 3.554 2.583 7.04 4.298 10.431 4.38 8.656 13.313 13.777 22.871 9.927 3.411-1.374 6.523-3.776 9.172-6.699 7.096 8.183 17.653 7.812 27.502 7.8 14.847-.019 29.694-.054 44.542-.095 9.651-.027 9.669-15.027 0-15-12.73.036-25.46.065-38.19.086z"/><path d="m369.388 332.874c16.153 0 29.295-13.141 29.295-29.294s-13.142-29.294-29.295-29.294c-16.152 0-29.294 13.142-29.294 29.294s13.141 29.294 29.294 29.294zm0-43.588c7.882 0 14.295 6.413 14.295 14.294s-6.413 14.294-14.295 14.294-14.294-6.412-14.294-14.294 6.412-14.294 14.294-14.294z"/></symbol><symbol id="lecture" viewBox="0 0 64 64"><title>lecture</title><path d="m63 31v-30h-42v10h-5.54c.954-1.063 1.54-2.462 1.54-4 0-3.309-2.691-6-6-6s-6 2.691-6 6c0 1.796.797 3.406 2.051 4.506-3.516 1.225-6.051 4.565-6.051 8.494v3c0 2.206 1.794 4 4 4v10.5c0 .539.133 1.044.351 1.5h-4.351v8h4.35c-.222.627-.35 1.298-.35 2 0 1.796.797 3.406 2.051 4.506-3.516 1.225-6.051 4.565-6.051 8.494v1h18 2 16 2 18v-1c0-3.929-2.535-7.269-6.051-8.494 1.254-1.1 2.051-2.71 2.051-4.506 0-.702-.128-1.373-.35-2h10.35v-8h-6.434l-4.8-8zm-40-28h38v26h-38v-12h3c1.302 0 2.402-.839 2.816-2h12.184v-10h-16v6h-2zm-6.351 36c.218-.456.351-.961.351-1.5v-20.5h4v14h11.234l-4.8 8zm17.917-8h2.668l-4.8 8h-2.668zm4.434.944v7.056h-4.234zm2-.944h2v8h-2zm4 .944 4.234 7.056h-4.234zm-16.184-18.944c-.302-.847-.969-1.514-1.816-1.816v-4.184h12v6zm-17.816-10c2.206 0 4 1.794 4 4s-1.794 4-4 4-4-1.794-4-4 1.794-4 4-4zm-4 34.5v-17.5h-2v5c-1.103 0-2-.897-2-2v-3c0-3.86 3.14-7 7-7h16c.551 0 1 .449 1 1s-.449 1-1 1h-11v22.5c0 .827-.673 1.5-1.5 1.5s-1.5-.673-1.5-1.5v-13.5h-2v13.5c0 .827-.673 1.5-1.5 1.5s-1.5-.673-1.5-1.5zm4 7.5c2.206 0 4 1.794 4 4s-1.794 4-4 4-4-1.794-4-4 1.794-4 4-4zm-7.929 16c.487-3.388 3.408-6 6.929-6h2c3.521 0 6.442 2.612 6.929 6zm11.878-7.494c1.254-1.1 2.051-2.71 2.051-4.506 0-.702-.128-1.373-.35-2h6.7c-.222.627-.35 1.298-.35 2 0 1.796.797 3.406 2.051 4.506-2.193.764-4 2.348-5.051 4.389-1.052-2.041-2.859-3.625-5.051-4.389zm18.051-4.506c0 2.206-1.794 4-4 4s-4-1.794-4-4 1.794-4 4-4 4 1.794 4 4zm-11.929 12c.487-3.388 3.408-6 6.929-6h2c3.521 0 6.442 2.612 6.929 6zm11.878-7.494c1.254-1.1 2.051-2.71 2.051-4.506 0-.702-.128-1.373-.35-2h6.7c-.222.627-.35 1.298-.35 2 0 1.796.797 3.406 2.051 4.506-2.193.764-4 2.348-5.051 4.389-1.052-2.041-2.859-3.625-5.051-4.389zm15.051 1.494c3.521 0 6.442 2.612 6.929 6h-15.858c.487-3.388 3.408-6 6.929-6zm-1-2c-2.206 0-4-1.794-4-4s1.794-4 4-4 4 1.794 4 4-1.794 4-4 4zm14-8h-9.54c-1.099-1.224-2.688-2-4.46-2s-3.36.776-4.46 2h-9.08c-1.099-1.224-2.688-2-4.46-2s-3.36.776-4.46 2h-9.08c-1.099-1.224-2.688-2-4.46-2s-3.36.776-4.46 2h-3.54v-4h58zm-6.766-6h-2.668l-4.8-8h2.668z"/><path d="m41 23v2h-2v-8h-2v8h-2v2h24v-14h-2v12h-2v-10h-2v10h-2v-4h-2v4h-2v-6h-2v6h-2v-2z"/><path d="m43 5h2v2h-2z"/><path d="m47 5h12v2h-12z"/><path d="m43 9h16v2h-16z"/><path d="m25 21h2v2h-2z"/><path d="m25 25h2v2h-2z"/></symbol><symbol id="typewriter" viewBox="0 0 64 64"><title>typewriter</title><path d="m60 11h-56a2 2 0 0 0 -2 2v18a2 2 0 0 0 2 2h2v7a1 1 0 0 0 .143.515l2.857 4.762v.723h-1a1 1 0 0 0 -1 1v6a1 1 0 0 0 1 1v7a1 1 0 0 0 1 1h14a1 1 0 0 0 1-1v-7a1 1 0 0 0 1-1v-6a1 1 0 0 0 -1-1v-.586l3.707-3.707a1 1 0 0 0 .293-.707v-8h8v8a1 1 0 0 0 .293.707l3.707 3.707v.586a1 1 0 0 0 -1 1v6a1 1 0 0 0 1 1v7a1 1 0 0 0 1 1h14a1 1 0 0 0 1-1v-7a1 1 0 0 0 1-1v-6a1 1 0 0 0 -1-1h-1v-.723l2.857-4.762a1 1 0 0 0 .143-.515v-7h2a2 2 0 0 0 2-2v-18a2 2 0 0 0 -2-2zm-51 37h14v4h-14zm13 12h-12v-6h12zm4-19.414-3.707 3.707a1 1 0 0 0 -.293.707v1h-11v-1a1 1 0 0 0 -.143-.515l-2.857-4.762v-9.723a1 1 0 0 1 2 0v3a1 1 0 0 0 2 0v-7a1 1 0 0 1 2 0v7a1 1 0 0 0 2 0v-8a1 1 0 0 1 2 0v8a1 1 0 0 0 2 0v-7a1 1 0 0 1 2 0v11a1 1 0 0 0 2 0v-6a1 1 0 0 1 2 0zm2-9.586a2.981 2.981 0 0 0 -.78-2h9.56a2.981 2.981 0 0 0 -.78 2zm27 17v4h-14v-4zm-1 12h-12v-6h12zm2-20.277-2.857 4.762a1 1 0 0 0 -.143.515v1h-11v-1a1 1 0 0 0 -.293-.707l-3.707-3.707v-9.586a1 1 0 0 1 2 0v6a1 1 0 0 0 2 0v-11a1 1 0 0 1 2 0v7a1 1 0 0 0 2 0v-8a1 1 0 0 1 2 0v8a1 1 0 0 0 2 0v-7a1 1 0 0 1 2 0v7a1 1 0 0 0 2 0v-3a1 1 0 0 1 2 0zm4-8.723h-2v-1a3 3 0 0 0 -4-2.829v-1.171a3 3 0 0 0 -4.472-2.614 3 3 0 0 0 -5.056 0 3 3 0 0 0 -4.472 2.614v1h-16v-1a3 3 0 0 0 -4.472-2.614 3 3 0 0 0 -5.056 0 3 3 0 0 0 -4.472 2.614v1.171a3 3 0 0 0 -4 2.829v1h-2v-18h56z"/><path d="m25 23h2v2h-2z"/><path d="m29 23h2v2h-2z"/><path d="m33 23h2v2h-2z"/><path d="m37 23h2v2h-2z"/><path d="m17 19h2v2h-2z"/><path d="m13 19h2v2h-2z"/><path d="m21 19h2v2h-2z"/><path d="m25 19h2v2h-2z"/><path d="m29 19h2v2h-2z"/><path d="m33 19h2v2h-2z"/><path d="m37 19h2v2h-2z"/><path d="m41 19h2v2h-2z"/><path d="m45 19h2v2h-2z"/><path d="m49 19h2v2h-2z"/><path d="m17 15h2v2h-2z"/><path d="m13 15h2v2h-2z"/><path d="m9 19h2v2h-2z"/><path d="m9 15h2v2h-2z"/><path d="m21 15h2v2h-2z"/><path d="m25 15h2v2h-2z"/><path d="m29 15h2v2h-2z"/><path d="m33 15h2v2h-2z"/><path d="m37 15h2v2h-2z"/><path d="m41 15h2v2h-2z"/><path d="m45 15h2v2h-2z"/><path d="m49 15h2v2h-2z"/><path d="m53 19h2v2h-2z"/><path d="m53 15h2v2h-2z"/><path d="m50 56h2v2h-2z"/><path d="m12 56h2v2h-2z"/></symbol><symbol id="chip" viewBox="0 0 512.002 512.002"><title>chip</title><g> <g> <path d="M504.5,248.501H383.742v-17.064h32.581c4.142,0,7.5-3.358,7.5-7.5c0-4.142-3.358-7.5-7.5-7.5h-32.581v-17.065h22.62 c8.427,0,16.35-3.281,22.308-9.24l49.326-49.326c3.214,1.601,6.777,2.453,10.473,2.453c6.286,0,12.195-2.448,16.64-6.892 c4.445-4.445,6.893-10.354,6.893-16.64c0-6.286-2.448-12.195-6.893-16.64c-4.444-4.445-10.354-6.893-16.64-6.893 s-12.195,2.448-16.64,6.892c-4.445,4.445-6.893,10.354-6.893,16.64c0,3.696,0.852,7.259,2.453,10.473l-49.326,49.326 c-3.125,3.125-7.281,4.847-11.702,4.847h-22.62v-16.548c0-21.816-17.749-39.564-39.564-39.564h-16.548V61.865 c9.308-3.139,16.032-11.946,16.032-22.3c0-12.976-10.557-23.532-23.532-23.532c-12.975,0-23.532,10.557-23.532,23.532 c0,10.354,6.724,19.16,16.032,22.3v66.394h-17.064V95.678c0-4.142-3.358-7.5-7.5-7.5c-4.142,0-7.5,3.358-7.5,7.5v32.581H263.5 V7.501c0-4.142-3.358-7.5-7.5-7.5c-4.142,0-7.5,3.358-7.5,7.5v120.758h-17.064V95.678c0-4.142-3.358-7.5-7.5-7.5 c-4.142,0-7.5,3.358-7.5,7.5v32.581h-17.064V105.64c0-8.427-3.282-16.35-9.241-22.308l-49.343-49.343 c4.359-8.801,2.898-19.775-4.421-27.095c-9.176-9.175-24.105-9.174-33.28,0c-9.175,9.175-9.175,24.104,0,33.28 c4.588,4.587,10.614,6.881,16.64,6.881c3.588,0,7.17-0.833,10.455-2.46l49.343,49.344c3.126,3.125,4.847,7.281,4.847,11.701 v22.619h-16.548c-3.345,0-6.672,0.42-9.888,1.247c-4.011,1.032-6.426,5.121-5.394,9.133c1.032,4.012,5.122,6.427,9.133,5.394 c1.995-0.513,4.063-0.774,6.148-0.774h176.354c13.545,0,24.564,11.02,24.564,24.564v176.355c0,2.083-0.26,4.15-0.772,6.143 c-1.031,4.012,1.385,8.1,5.396,9.131c0.626,0.161,1.254,0.238,1.873,0.238c3.341,0,6.388-2.249,7.258-5.635 c0.826-3.212,1.245-6.536,1.245-9.878v-16.548h66.394c3.139,9.308,11.946,16.032,22.3,16.032 c12.976,0,23.532-10.556,23.532-23.532s-10.557-23.532-23.532-23.532c-10.354,0-19.16,6.724-22.3,16.032h-66.394v-17.065h32.581 c4.142,0,7.5-3.358,7.5-7.5c0-4.142-3.358-7.5-7.5-7.5h-32.581v-17.063H504.5c4.142,0,7.5-3.358,7.5-7.5 C512,251.859,508.642,248.501,504.5,248.501z M482.435,113.694c1.612-1.612,3.754-2.499,6.033-2.499s4.421,0.887,6.033,2.499 s2.499,3.754,2.499,6.033s-0.887,4.421-2.499,6.033s-3.754,2.499-6.033,2.499s-4.421-0.887-6.033-2.499s-2.499-3.754-2.499-6.033 S480.823,115.305,482.435,113.694z M125.759,29.568c-3.326,3.325-8.739,3.326-12.067-0.001c-3.327-3.327-3.327-8.74,0-12.066 c1.664-1.664,3.848-2.495,6.034-2.495c2.185,0,4.37,0.832,6.033,2.495C129.086,20.828,129.086,26.241,125.759,29.568z M320.129,48.097c-4.704,0-8.532-3.828-8.532-8.532c0-4.704,3.827-8.532,8.532-8.532c4.705,0,8.532,3.828,8.532,8.532 C328.661,44.269,324.833,48.097,320.129,48.097z M472.436,311.598c4.705,0,8.532,3.828,8.532,8.532 c0,4.705-3.828,8.532-8.532,8.532c-4.704,0-8.532-3.828-8.532-8.532C463.903,315.425,467.731,311.598,472.436,311.598z"/> </g> </g><g> <g> <path d="M408.914,471.829c-7.319-7.32-18.294-8.781-27.095-4.422l-49.343-49.344c-3.126-3.125-4.847-7.281-4.847-11.701v-22.619 h16.548c3.345,0,6.671-0.42,9.886-1.247c4.011-1.032,6.426-5.121,5.394-9.133c-1.032-4.011-5.119-6.426-9.133-5.394 c-1.994,0.513-4.062,0.773-6.147,0.773H167.823c-13.545,0-24.564-11.02-24.564-24.564V167.824c0-2.085,0.26-4.153,0.773-6.146 c1.033-4.011-1.382-8.1-5.393-9.133c-4.012-1.033-8.101,1.382-9.133,5.393c-0.828,3.214-1.247,6.54-1.247,9.886v16.548H61.864 c-3.139-9.308-11.946-16.032-22.3-16.032c-12.976,0-23.532,10.556-23.532,23.532c0,12.976,10.557,23.532,23.532,23.532 c10.354,0,19.16-6.724,22.3-16.032h66.394v17.065H95.677c-4.142,0-7.5,3.358-7.5,7.5c0,4.142,3.358,7.5,7.5,7.5h32.581v17.064H7.5 c-4.142,0-7.5,3.358-7.5,7.5c0,4.142,3.358,7.5,7.5,7.5h120.758v17.064H95.677c-4.142,0-7.5,3.358-7.5,7.5 c0,4.142,3.358,7.5,7.5,7.5h32.581v17.065h-22.62c-8.427,0-16.35,3.281-22.308,9.24l-49.326,49.326 c-3.214-1.601-6.777-2.453-10.473-2.453c-6.286,0-12.195,2.448-16.64,6.892C2.448,380.08,0,385.99,0,392.275 s2.448,12.195,6.893,16.64c4.444,4.445,10.354,6.892,16.64,6.892c6.286,0,12.195-2.448,16.64-6.892 c4.445-4.445,6.893-10.354,6.893-16.64c0-3.696-0.852-7.259-2.453-10.473l49.326-49.326c3.125-3.125,7.281-4.847,11.702-4.847 h22.62v16.548c0,21.816,17.749,39.564,39.564,39.564h16.548v66.394c-9.308,3.139-16.032,11.946-16.032,22.3 c0,12.976,10.557,23.532,23.532,23.532s23.532-10.557,23.532-23.532c0-10.354-6.724-19.16-16.032-22.3v-66.394h17.064v32.581 c0,4.142,3.358,7.5,7.5,7.5c4.142,0,7.5-3.358,7.5-7.5v-32.581H248.5v120.76c0,4.142,3.358,7.5,7.5,7.5c4.142,0,7.5-3.358,7.5-7.5 V383.743h17.064v32.581c0,4.142,3.358,7.5,7.5,7.5c4.142,0,7.5-3.358,7.5-7.5v-32.581h17.064v22.619 c0,8.427,3.282,16.35,9.241,22.308l49.343,49.343c-4.359,8.801-2.898,19.775,4.422,27.095c4.587,4.588,10.614,6.881,16.64,6.881 s12.053-2.293,16.64-6.881C418.089,495.933,418.089,481.004,408.914,471.829z M39.564,200.404c-4.705,0-8.532-3.828-8.532-8.532 c0-4.705,3.828-8.532,8.532-8.532c4.704,0,8.532,3.828,8.532,8.532C48.097,196.577,44.269,200.404,39.564,200.404z M29.565,398.308c-1.612,1.612-3.754,2.499-6.033,2.499s-4.421-0.887-6.033-2.499S15,394.554,15,392.275s0.887-4.421,2.499-6.033 s3.754-2.499,6.033-2.499s4.421,0.887,6.033,2.499s2.499,3.754,2.499,6.033S31.177,396.697,29.565,398.308z M200.403,472.437 c0,4.704-3.827,8.532-8.532,8.532c-4.705,0-8.532-3.828-8.532-8.532c0-4.704,3.828-8.532,8.532-8.532 C196.575,463.905,200.403,467.733,200.403,472.437z M398.308,494.502c-3.327,3.327-8.74,3.326-12.067,0 c-3.327-3.327-3.327-8.74,0-12.066c1.664-1.663,3.849-2.495,6.034-2.495s4.37,0.832,6.033,2.495 C401.634,485.762,401.634,491.175,398.308,494.502z"/> </g> </g><g> <g> <path d="M335.645,235.962c0-16.04-11.732-29.627-27.793-34.042c0.475-1.961,0.739-3.978,0.739-6.039 c0-15.186-13.479-27.541-30.045-27.541c-8.974,0-17.035,3.629-22.545,9.365c-5.51-5.736-13.572-9.365-22.545-9.365 c-16.567,0-30.045,12.355-30.045,27.541c0,2.061,0.264,4.078,0.739,6.039c-16.061,4.414-27.793,18.001-27.793,34.042 c0,7.839,2.774,15.235,7.899,21.343c-5.011,6.487-7.899,14.362-7.899,22.746c-0.002,12.752,6.812,24.659,18.035,32.045 c0,0.006,0,0.012,0,0.018c0,17.396,15.501,31.549,34.555,31.549c10.95,0,20.719-4.679,27.054-11.957 c6.335,7.278,16.104,11.957,27.054,11.957c18.337,0,33.376-13.11,34.482-29.602c11.137-6.462,18.108-17.781,18.108-30.003 c0-8.99-3.833-17.566-10.43-24.048C331.811,253.528,335.645,244.951,335.645,235.962z M309.101,266.642 c7.227,3.814,11.541,10.325,11.541,17.416c0,5.287-2.457,10.33-6.607,14.101c-3.943-7.301-10.912-13.113-19.717-15.879 c-3.95-1.241-8.161,0.956-9.403,4.907c-1.242,3.952,0.956,8.162,4.907,9.403c7.646,2.403,12.784,8.642,12.784,15.525 c0,9.125-8.772,16.549-19.555,16.549c-10.782,0-19.554-7.424-19.554-16.549v-48.097c0-9.125,8.772-16.548,19.554-16.548 c4.142,0,7.5-3.358,7.5-7.5c0-4.142-3.358-7.5-7.5-7.5c-7.254,0-13.99,2.056-19.554,5.557v-9.58c0-4.142-3.358-7.5-7.5-7.5 c-4.142,0-7.5,3.358-7.5,7.5v41.637c-2.524-1.584-5.292-2.895-8.286-3.836c-3.954-1.242-8.162,0.956-9.403,4.906 c-1.242,3.952,0.955,8.162,4.906,9.404c7.646,2.403,12.783,8.642,12.783,15.524v16.032c0,9.125-8.772,16.549-19.554,16.549 c-10.783,0-19.555-7.424-19.555-16.549c0-3.911,1.658-7.713,4.668-10.705c2.938-2.92,2.952-7.669,0.032-10.607 c-2.92-2.938-7.668-2.952-10.606-0.032c-1.797,1.787-3.344,3.739-4.63,5.814c-4.736-4.48-7.501-10.374-7.501-16.535 c0-11.112,8.721-20.874,21.208-23.739c4.037-0.926,6.559-4.95,5.633-8.987c-0.926-4.038-4.951-6.559-8.987-5.633 c-5.027,1.153-9.655,3.078-13.759,5.605c-2.661-3.342-4.094-7.256-4.094-11.335c0.003-11.281,10.697-20.465,23.88-20.552 c0.067,0.002,0.134,0.011,0.2,0.011c1.712,0,3.433-0.583,4.842-1.776c2.875-2.434,3.452-6.564,1.522-9.671 c-0.057-0.092-0.109-0.186-0.169-0.275c-0.031-0.045-0.068-0.088-0.1-0.133c-0.116-0.163-0.235-0.323-0.364-0.477 c-0.004-0.005-0.007-0.01-0.011-0.014c-1.251-1.479-2.744-3.927-2.744-7.193c0-6.915,6.75-12.541,15.045-12.541 c8.295,0,15.045,5.626,15.045,12.541c0,4.142,3.358,7.5,7.5,7.5c4.142,0,7.5-3.358,7.5-7.5c0-6.915,6.75-12.541,15.045-12.541 c8.295,0,15.045,5.626,15.045,12.541c0,1.848-0.484,3.424-1.125,4.72c-4.266,0.403-8.392,1.434-12.309,3.086 c-3.817,1.609-5.606,6.008-3.997,9.825c1.609,3.816,6.008,5.607,9.825,3.997c3.242-1.367,6.73-2.07,10.368-2.098 c0.072,0.002,0.143,0.009,0.215,0.009c0.067,0,0.133-0.009,0.2-0.011c13.183,0.086,23.877,9.271,23.877,20.552 c0,7.091-4.314,13.601-11.541,17.416c-2.46,1.298-4,3.851-4,6.633C305.101,262.791,306.641,265.344,309.101,266.642z"/> </g> </g></symbol><symbol id="robotic" viewBox="0 0 64 64"><title>robotic</title><path d="m55 36.905h-3v-3c0-2.757-2.243-5-5-5h-5v-3c0-.552-.448-1-1-1h-8v-2.142c1.72-.447 3-2 3-3.858 0-2.206-1.794-4-4-4s-4 1.794-4 4c0 1.858 1.28 3.411 3 3.858v2.142h-8c-.552 0-1 .448-1 1v3h-5c-2.757 0-5 2.243-5 5v3h-3c-1.654 0-3 1.346-3 3v12c0 1.654 1.346 3 3 3h3v3c0 2.757 2.243 5 5 5h30c2.757 0 5-2.243 5-5v-3h3c1.654 0 3-1.346 3-3v-12c0-1.654-1.346-3-3-3zm-25-18c0-1.103.897-2 2-2s2 .897 2 2-.897 2-2 2-2-.897-2-2zm-21 34c-.551 0-1-.449-1-1v-12c0-.551.449-1 1-1h3v14zm15-26h16v2h-16zm26 31c0 1.654-1.346 3-3 3h-30c-1.654 0-3-1.346-3-3v-24c0-1.654 1.346-3 3-3h30c1.654 0 3 1.346 3 3zm6-6c0 .551-.449 1-1 1h-3v-14h3c.551 0 1 .449 1 1z"/><path d="m41 46.905h-18c-.552 0-1 .448-1 1v1c0 5.514 4.486 10 10 10s10-4.486 10-10v-1c0-.552-.448-1-1-1zm-9 10c-4.411 0-8-3.589-8-8h16c0 4.411-3.589 8-8 8z"/><path d="m26 40.905c0-2.206-1.794-4-4-4s-4 1.794-4 4 1.794 4 4 4 4-1.794 4-4zm-6 0c0-1.103.897-2 2-2s2 .897 2 2-.897 2-2 2-2-.897-2-2z"/><path d="m42 36.905c-2.206 0-4 1.794-4 4s1.794 4 4 4 4-1.794 4-4-1.794-4-4-4zm0 6c-1.103 0-2-.897-2-2s.897-2 2-2 2 .897 2 2-.897 2-2 2z"/><path d="m16.293 22.612c.191.191.447.293.707.293.129 0 .259-.025.383-.076.373-.155.617-.519.617-.924v-3h6c1.654 0 3-1.346 3-3v-12c0-1.654-1.346-3-3-3h-20c-1.654 0-3 1.346-3 3v12c0 1.654 1.346 3 3 3h8.586zm-13.293-6.707v-12c0-.551.449-1 1-1h20c.551 0 1 .449 1 1v12c0 .551-.449 1-1 1h-7c-.552 0-1 .448-1 1v1.586l-2.293-2.293c-.188-.188-.442-.293-.707-.293h-9c-.551 0-1-.448-1-1z"/><path d="m60 4.905h-20c-1.654 0-3 1.346-3 3v12c0 1.654 1.346 3 3 3h6v3c0 .404.244.769.617.924.124.051.254.076.383.076.26 0 .516-.102.707-.293l3.707-3.707h8.586c1.654 0 3-1.346 3-3v-12c0-1.654-1.346-3-3-3zm1 15c0 .551-.449 1-1 1h-9c-.265 0-.52.105-.707.293l-2.293 2.293v-1.586c0-.552-.448-1-1-1h-7c-.551 0-1-.449-1-1v-12c0-.551.449-1 1-1h20c.551 0 1 .449 1 1z"/><path d="m5 4.905h18v2h-18z"/><path d="m5 12.905h18v2h-18z"/><path d="m7 8.905h14v2h-14z"/><path d="m41 8.905h18v2h-18z"/><path d="m41 16.905h18v2h-18z"/><path d="m43 12.905h14v2h-14z"/></symbol><symbol id="profit" viewBox="0 1 511 511.99938"><title>profit</title><path d="m216.5 366c5.519531 0 10-4.480469 10-10s-4.480469-10-10-10-10 4.480469-10 10 4.480469 10 10 10zm0 0"/><path d="m3.429688 389.070312 120 120c3.90625 3.90625 10.234374 3.90625 14.140624 0l66-66c3.90625-3.90625 3.90625-10.234374 0-14.140624l-2.929687-2.929688h144.148437c12.660157 0 24.742188-4.746094 34.058594-13.394531l121.316406-113.699219c11.613282-10.785156 15.460938-27.917969 9.570313-42.628906-4.257813-10.648438-12.953125-18.796875-23.851563-22.355469-10.902343-3.566406-22.726562-2.121094-32.453124 3.957031-.0625.039063-26.933594 17.671875-26.933594 17.671875-.183594-54.207031-32.945313-112.011719-78.042969-138.035156 2.574219-2.957031 4.597656-6.457031 5.886719-10.375 5.160156-15.699219-3.417969-32.691406-19.140625-37.882813-.492188-.164062-.984375-.308593-1.476563-.460937l25.742188-46.242187c1.480468-2.660157 1.671875-5.851563.511718-8.664063-1.15625-2.816406-3.53125-4.953125-6.457031-5.800781-18.457031-5.367188-37.640625-8.089844-57.019531-8.089844-19.375 0-38.5625 2.722656-57.019531 8.085938-2.925781.851562-5.300781 2.984374-6.460938 5.800781-1.15625 2.816406-.96875 6.007812.515625 8.667969l25.742188 46.242187c-.5.15625-1 .304687-1.5.46875-15.699219 5.183594-24.273438 22.171875-19.113282 37.882813 1.289063 3.910156 3.328126 7.398437 5.910157 10.359374-45.769531 26.410157-78.074219 84.808594-78.074219 138.492188 0 1.464844.035156 2.910156.082031 4.34375-17.910156 4.886719-34.5625 13.789062-48.566406 26.050781l-30.390625 26.589844-4.054688-4.054687c-3.90625-3.90625-10.234374-3.90625-14.140624 0l-66 66c-3.90625 3.90625-3.90625 10.234374 0 14.140624zm253.902343-364.886718c12.8125-2.78125 25.9375-4.183594 39.167969-4.183594s26.355469 1.402344 39.171875 4.183594l-22.285156 40.027344c-11.234375-1.566407-22.546875-1.566407-33.769531 0zm6.6875 64.082031c20.519531-6.714844 42.890625-7.222656 64.933594-.007813 5.246094 1.730469 8.109375 7.402344 6.386719 12.636719-1.296875 3.941407-4.8125 6.617188-8.886719 6.855469-19.71875-6.269531-40.199219-6.28125-59.910156-.019531 0 0 0 0-.003907 0-4.109374-.257813-7.597656-2.945313-8.878906-6.832031-1.722656-5.242188 1.140625-10.914063 6.359375-12.632813zm5.53125 39.550781c17.339844-6.246094 35.304688-6.394531 52.6875-.421875 46.460938 15.976563 84.261719 73.667969 84.261719 128.605469 0 4.65625-.292969 9.09375-.871094 13.242188l-48.066406 31.535156c-7.441406-9.21875-18.71875-14.777344-31.0625-14.777344h-20v-11.71875c11.640625-4.128906 20-15.246094 20-28.28125 0-16.542969-13.457031-30-30-30-5.511719 0-10-4.484375-10-10s4.488281-10 10-10c3.542969 0 7.28125 1.808594 10.816406 5.226562 3.96875 3.839844 10.300782 3.734376 14.140625-.230468 3.839844-3.96875 3.734375-10.300782-.234375-14.140625-5.074218-4.914063-10.152344-7.691407-14.722656-9.207031v-11.648438c0-5.523438-4.476562-10-10-10s-10 4.476562-10 10v11.71875c-11.636719 4.128906-20 15.246094-20 28.28125 0 16.542969 13.457031 30 30 30 5.515625 0 10 4.484375 10 10s-4.484375 10-10 10c-4.273438 0-8.882812-2.6875-12.984375-7.566406-3.554687-4.226563-9.863281-4.773438-14.089844-1.21875-4.226562 3.554687-4.773437 9.863281-1.21875 14.089844 5.34375 6.359374 11.632813 10.789062 18.292969 13.023437v11.671875h-3.328125c-4.914063 0-7.121094-3.203125-10.582031-5.441406-21.128906-15.835938-47.300782-24.558594-73.699219-24.558594-4.128906 0-8.265625.214844-12.382813.632812 0-.210937-.007812-.417968-.007812-.632812 0-54.167969 37.257812-111.667969 83.050781-128.183594zm-138.363281 173.625c18.789062-16.453125 42.933594-25.441406 67.703125-25.441406 22.101563 0 44.011719 7.300781 61.691406 20.554688 2.550781 1.492187 9.652344 9.445312 22.585938 9.445312h43.332031c11.382812 0 20 9.253906 20 20 0 11.027344-8.972656 20-20 20h-70c-5.523438 0-10 4.476562-10 10s4.476562 10 10 10h70c22.054688 0 40-17.945312 40-40 0-2.292969-.203125-4.554688-.585938-6.78125l98.199219-64.429688c4.671875-2.886718 10.339844-3.5625 15.558594-1.859374 5.25 1.71875 9.441406 5.644531 11.492187 10.777343 2.886719 7.203125 1.074219 15.269531-4.644531 20.578125l-121.3125 113.695313c-5.570312 5.171875-12.820312 8.019531-20.417969 8.019531h-164.148437l-78.839844-78.84375zm-54.6875 28.699219 105.859375 105.859375-51.859375 51.859375-105.859375-105.859375zm0 0"/></symbol></svg>