<svg xmlns="http://www.w3.org/2000/svg" style="display: none;"><symbol id="time" viewBox="0 0 512 512"><title>time</title><path d="m256 0-128 256 128 256c141.385 0 256-114.615 256-256s-114.615-256-256-256z" fill="#28abfa"/><path d="m0 256c0 141.385 114.615 256 256 256v-512c-141.385 0-256 114.615-256 256z" fill="#14cfff"/><path d="m256 60-98 196 98 196c108.248 0 196-87.752 196-196s-87.752-196-196-196z" fill="#c4f3ff"/><path d="m60 256c0 108.248 87.752 196 196 196v-392c-108.248 0-196 87.752-196 196z" fill="#fff"/><path d="m298.426 277.213-42.426-42.426h-20l20 42.426 21.213 21.213z" fill="#340d66"/><path d="m170.794 149.581-21.213 21.213 106.419 106.419v-42.426z" fill="#373e9f"/><path d="m341.561 149.227-85.561 85.56-20 42.426h20l106.773-106.774z" fill="#373e9f"/><path d="m213.574 277.213 21.213 21.213 21.213-21.213v-42.426z" fill="#3857bc"/><path d="m271 90h-15l-10 15 10 15h15z" fill="#340d66"/><path d="m241 90h15v30h-15z" fill="#373e9f"/><path d="m271 392h-15l-10 15 10 15h15z" fill="#340d66"/><path d="m241 392h15v30h-15z" fill="#373e9f"/><path d="m90 241h30v30h-30z" fill="#373e9f" transform="matrix(0 -1 1 0 -151 361)"/><path d="m392 241h30v30h-30z" fill="#340d66" transform="matrix(0 -1 1 0 151 663)"/></symbol><symbol id="calendar" viewBox="0 0 512 512"><title>calendar</title><g> <path style="fill:#D8DCE1;" d="M0,134v328c0,22.055,17.945,40,40,40h432c22.055,0,40-17.945,40-40V134H0z"/> </g><g> <path style="fill:#FF4F19;" d="M472,22H40C17.945,22,0,39.945,0,62v72h512V62C512,39.945,494.054,22,472,22z M64,102 c-13.255,0-24-10.745-24-24s10.745-24,24-24s24,10.745,24,24S77.255,102,64,102z M448,102c-13.255,0-24-10.745-24-24 s10.745-24,24-24s24,10.745,24,24S461.255,102,448,102z"/> </g><g> <g> <path style="fill:#FFFFFF;" d="M256,206c-17.648,0-32,14.352-32,32s14.352,32,32,32s32-14.352,32-32S273.648,206,256,206z"/> </g> <g> <path style="fill:#FFFFFF;" d="M176,206c-17.648,0-32,14.352-32,32s14.352,32,32,32s32-14.352,32-32S193.648,206,176,206z"/> </g> <g> <path style="fill:#FFFFFF;" d="M96,206c-17.648,0-32,14.352-32,32s14.352,32,32,32s32-14.352,32-32S113.648,206,96,206z"/> </g> <g> <path style="fill:#FFFFFF;" d="M336,206c-17.648,0-32,14.352-32,32s14.352,32,32,32c17.648,0,32-14.352,32-32 S353.648,206,336,206z"/> </g> <g> <path style="fill:#FFFFFF;" d="M416,270c17.648,0,32-14.352,32-32s-14.352-32-32-32c-17.648,0-32,14.352-32,32 S398.351,270,416,270z"/> </g> <g> <path style="fill:#FFFFFF;" d="M256,286c-17.648,0-32,14.352-32,32s14.352,32,32,32s32-14.352,32-32S273.648,286,256,286z"/> </g> <g> <path style="fill:#FFFFFF;" d="M176,286c-17.648,0-32,14.352-32,32s14.352,32,32,32s32-14.352,32-32S193.648,286,176,286z"/> </g> <g> <path style="fill:#FFFFFF;" d="M96,286c-17.648,0-32,14.352-32,32s14.352,32,32,32s32-14.352,32-32S113.648,286,96,286z"/> </g> <g> <path style="fill:#FFFFFF;" d="M336,286c-17.648,0-32,14.352-32,32s14.352,32,32,32c17.648,0,32-14.352,32-32 S353.648,286,336,286z"/> </g> <g> <path style="fill:#FFFFFF;" d="M416,286c-17.648,0-32,14.352-32,32s14.352,32,32,32c17.648,0,32-14.352,32-32 S433.648,286,416,286z"/> </g> <g> <path style="fill:#FFFFFF;" d="M256,366c-17.648,0-32,14.352-32,32c0,17.648,14.352,32,32,32s32-14.352,32-32 C288,380.351,273.648,366,256,366z"/> </g> <g> <path style="fill:#FFFFFF;" d="M176,366c-17.648,0-32,14.352-32,32c0,17.648,14.352,32,32,32s32-14.352,32-32 C208,380.351,193.648,366,176,366z"/> </g> <g> <path style="fill:#FFFFFF;" d="M96,366c-17.648,0-32,14.352-32,32c0,17.648,14.352,32,32,32s32-14.352,32-32 C128,380.351,113.648,366,96,366z"/> </g> <g> <path style="fill:#FFFFFF;" d="M336,366c-17.648,0-32,14.352-32,32c0,17.648,14.352,32,32,32c17.648,0,32-14.352,32-32 C368,380.351,353.648,366,336,366z"/> </g> <g> <path style="fill:#FFFFFF;" d="M416,366c-17.648,0-32,14.352-32,32c0,17.648,14.352,32,32,32c17.648,0,32-14.352,32-32 C448,380.351,433.648,366,416,366z"/> </g> </g><g> <g> <path style="fill:#5C546A;" d="M64,90c-6.625,0-12-5.371-12-12V22c0-6.629,5.375-12,12-12s12,5.371,12,12v56 C76,84.629,70.625,90,64,90z"/> </g> </g><g> <g> <path style="fill:#5C546A;" d="M448,90c-6.625,0-12-5.371-12-12V22c0-6.629,5.375-12,12-12s12,5.371,12,12v56 C460,84.629,454.625,90,448,90z"/> </g> </g><g> <circle style="fill:#FFD200;" cx="96" cy="238" r="32"/> </g><g> <circle style="fill:#FF9600;" cx="256" cy="398" r="32"/> </g><g> <circle style="fill:#FF4F19;" cx="336" cy="318" r="32"/> </g></symbol><symbol id="money" viewBox="0 0 497.68 497.68"><title>money</title><path style="fill:#F2B233;" d="M464.04,404.82c0,97.6-96,92-215.2,92s-215.2,4.8-215.2-92c0-97.6,96-260,215.2-260 C368.04,145.62,464.04,308.02,464.04,404.82z"/><path style="fill:#DD981D;" d="M248.84,145.62c119.2,0,215.2,162.4,215.2,260s-96,92-215.2,92"/><path style="fill:#F2B233;" d="M144.04,44.82c0-47.2,47.2-44.8,104.8-44.8s104.8-2.4,104.8,44.8s-47.2,126.4-104.8,126.4 S144.04,92.02,144.04,44.82z"/><path style="fill:#DD981D;" d="M248.84,0.02c57.6,0,104.8-2.4,104.8,44.8s-47.2,126.4-104.8,126.4"/><path style="fill:#04AF76;" d="M340.84,154.42c0,8-6.4,14.4-14.4,14.4h-155.2c-8,0-14.4-6.4-14.4-14.4v-4c0-8,6.4-14.4,14.4-14.4 h156c8,0,14.4,6.4,14.4,14.4v4H340.84z"/><path style="fill:#008C61;" d="M168.84,136.82h158.4c8,0,14.4,6.4,14.4,14.4v4c0,8-8,14.4-16,14.4"/><circle style="fill:#04AF76;" cx="248.84" cy="339.22" r="96"/><path style="fill:#008C61;" d="M180.84,271.22c37.6-37.6,98.4-37.6,136,0s37.6,98.4,0,136"/><path style="fill:#FFF6E1;" d="M240.84,416.82v-20c-16-0.8-24.8-4-32-8l4.8-21.6c8,4,18.4,8,30.4,8c10.4,0,17.6-4,17.6-11.2 s-5.6-11.2-20-16c-20-6.4-32.8-16-32.8-33.6c0-16,7.2-28.8,31.2-32.8v-16.8h16v16c16,0.8,21.6,3.2,27.2,6.4l-4.8,20.8 c-4.8-2.4-12.8-6.4-26.4-6.4c-12,0-16,4.8-16,10.4c0,6.4,6.4,9.6,22.4,16c21.6,8,30.4,17.6,30.4,34.4s-8.8,30.4-32.8,34.4v20H240.84 z"/><g> <path style="fill:#FFEEBD;" d="M248.84,264.82v36.8c0,0,2.4,0,4,0c13.6,0,21.6,4,26.4,6.4l4.8-20.8c-6.4-3.2-11.2-6.4-27.2-6.4v-16 H248.84z"/> <path style="fill:#FFEEBD;" d="M259.24,327.22c-4-1.6-8-3.2-10.4-4v27.2c8,4,12.8,8,12.8,13.6c0,6.4-4.8,9.6-12.8,11.2v41.6h8 v-20.8c24-4,32.8-17.6,32.8-34.4C289.64,344.82,280.84,335.22,259.24,327.22z"/> </g></symbol><symbol id="location" viewBox="0 0 512 512"><title>location</title><g id="Google_Maps_2_"><g><path d="m272.5 268.5-54.958 84.957-52.443 22.442c-30.899-35.4-63.898-77.399-79.499-130.499l31.4-58.4 50.5-23.5c-.899 5.4-1.5 10.8-1.5 16.5 0 49.499 40.499 90 90 90 5.7 0 11.1-.601 16.5-1.5z" fill="#ffda2d"/></g></g><path d="m344.51 196.41c.9-5.37 1.49-10.74 1.49-16.41 0-49.46-40.44-89.94-89.89-90h-.11c-5.7 0-11.1.6-16.5 1.5l79.8-79.8c48.3 18 87 56.7 105 105l-79.8 79.8c0-.03.01-.06.01-.09z" fill="#80aef8"/><path d="m424.3 116.7-27.3 53.3-52.5 26.5c0-.03.01-.06.01-.09.9-5.37 1.49-10.74 1.49-16.41 0-49.46-40.44-89.94-89.89-90h-.08v-15.03l17.97-39.97 45.3-23.3c48.3 18 87 56.7 105 105z" fill="#4086f4"/><g><path d="m424.3 116.7-79.8 79.799c-6.901 36.301-35.7 65.1-72.001 72.001h-.001l-86.872 86.871-20.528 20.527c5.101 5.7 9.6 10.802 14.401 16.201 33.001 37.501 61.501 71.9 61.501 104.901 0 8.399 6.599 15 15 15s15-6.601 15-15c0-33.001 28.5-67.4 61.5-104.9 46.201-51.901 103.5-116.7 103.5-212.1 0-22.2-3.9-43.5-11.7-63.3z" fill="#59c36a"/><path d="m424.3 116.7-79.799 79.798v.001c-6.901 36.301-35.7 65.1-72.001 72.001-.001 0-.001 0-.002 0l-16.467 16.466v227.028c8.386-.018 14.969-6.606 14.969-14.994 0-33.001 28.5-67.4 61.5-104.9 46.201-51.901 103.5-116.7 103.5-212.1 0-22.2-3.9-43.5-11.7-63.3z" fill="#00a66c"/></g><g id="Google_Maps_3_"><path d="m256.031 284.969 16.469-16.469c-5.389.897-10.779 1.492-16.469 1.496z" fill="#fdbf00"/></g><path d="m319.3 11.7-79.8 79.8c-18.3 3.6-34.501 12.299-47.1 24.901l-46.4-19.401-17.2-44.2c32.401-32.701 77.401-52.8 127.2-52.8 22.2 0 43.5 3.9 63.3 11.7z" fill="#4086f4"/><path d="m256.031 74.969 63.269-63.269c-19.79-7.797-41.08-11.693-63.268-11.697v74.966z" fill="#4175df"/><path d="m192.4 116.4c-12.599 12.6-21.301 28.799-24.9 47.1l-81.9 81.9c-6-20.099-9.6-41.7-9.6-65.4 0-49.801 20.099-94.801 52.8-127.2z" fill="#f03800"/></symbol></svg>