<svg xmlns="http://www.w3.org/2000/svg" style="display: none;"><symbol id="calendar" viewBox="0 0 512 512"><title>calendar</title><g> <g> <path d="M452,40h-24V0h-40v40H124V0H84v40H60C26.916,40,0,66.916,0,100v352c0,33.084,26.916,60,60,60h392 c33.084,0,60-26.916,60-60V100C512,66.916,485.084,40,452,40z M472,452c0,11.028-8.972,20-20,20H60c-11.028,0-20-8.972-20-20V188 h432V452z M472,148H40v-48c0-11.028,8.972-20,20-20h24v40h40V80h264v40h40V80h24c11.028,0,20,8.972,20,20V148z"/> </g> </g><g> <g> <rect x="76" y="230" width="40" height="40"/> </g> </g><g> <g> <rect x="156" y="230" width="40" height="40"/> </g> </g><g> <g> <rect x="236" y="230" width="40" height="40"/> </g> </g><g> <g> <rect x="316" y="230" width="40" height="40"/> </g> </g><g> <g> <rect x="396" y="230" width="40" height="40"/> </g> </g><g> <g> <rect x="76" y="310" width="40" height="40"/> </g> </g><g> <g> <rect x="156" y="310" width="40" height="40"/> </g> </g><g> <g> <rect x="236" y="310" width="40" height="40"/> </g> </g><g> <g> <rect x="316" y="310" width="40" height="40"/> </g> </g><g> <g> <rect x="76" y="390" width="40" height="40"/> </g> </g><g> <g> <rect x="156" y="390" width="40" height="40"/> </g> </g><g> <g> <rect x="236" y="390" width="40" height="40"/> </g> </g><g> <g> <rect x="316" y="390" width="40" height="40"/> </g> </g><g> <g> <rect x="396" y="310" width="40" height="40"/> </g> </g></symbol><symbol id="rupee-indian" viewBox="0 0 401.998 401.998"><title>rupee-indian</title><path d="M326.62,91.076c-1.711-1.713-3.901-2.568-6.563-2.568h-48.82c-3.238-15.793-9.329-29.502-18.274-41.112h66.52 c2.669,0,4.853-0.856,6.57-2.565c1.704-1.712,2.56-3.903,2.56-6.567V9.136c0-2.666-0.855-4.853-2.56-6.567 C324.334,0.859,322.15,0,319.481,0H81.941c-2.666,0-4.853,0.859-6.567,2.568c-1.709,1.714-2.568,3.901-2.568,6.567v37.972 c0,2.474,0.904,4.615,2.712,6.423s3.949,2.712,6.423,2.712h41.399c40.159,0,65.665,10.751,76.513,32.261H81.941 c-2.666,0-4.856,0.855-6.567,2.568c-1.709,1.715-2.568,3.901-2.568,6.567v29.124c0,2.664,0.855,4.854,2.568,6.563 c1.714,1.715,3.905,2.568,6.567,2.568h121.915c-4.188,15.612-13.944,27.506-29.268,35.691 c-15.325,8.186-35.544,12.279-60.67,12.279H81.941c-2.474,0-4.615,0.905-6.423,2.712c-1.809,1.809-2.712,3.951-2.712,6.423v36.263 c0,2.478,0.855,4.571,2.568,6.282c36.543,38.828,83.939,93.165,142.182,163.025c1.715,2.286,4.093,3.426,7.139,3.426h55.672 c4.001,0,6.763-1.708,8.281-5.141c1.903-3.426,1.53-6.662-1.143-9.708c-55.572-68.143-99.258-119.153-131.045-153.032 c32.358-3.806,58.625-14.277,78.802-31.404c20.174-17.129,32.449-39.403,36.83-66.811h47.965c2.662,0,4.853-0.854,6.563-2.568 c1.715-1.709,2.573-3.899,2.573-6.563V97.646C329.193,94.977,328.335,92.79,326.62,91.076z"/></symbol><symbol id="pin" viewBox="0 0 512 512"><title>pin</title><path d="m256.001 512c-11.176 0-21.184-5.796-26.77-15.505-.059-.102-.116-.205-.173-.308l-126.962-232.386c-30.306-55.471-29.437-121.312 2.325-176.124 31.073-53.624 86.265-86.385 147.639-87.637 2.622-.054 5.258-.054 7.878 0 61.375 1.252 116.567 34.013 147.641 87.637 31.762 54.812 32.631 120.652 2.325 176.124l-126.962 232.386c-.057.103-.114.206-.173.308-5.585 9.708-15.592 15.505-26.768 15.505zm-.001-480c-1.099 0-2.195.011-3.289.033-50.099 1.022-95.185 27.821-120.604 71.688-26.107 45.055-26.829 99.162-1.93 144.736l125.823 230.3 125.822-230.299c24.899-45.575 24.178-99.682-1.931-144.737-25.419-43.866-70.505-70.666-120.604-71.688-1.091-.022-2.188-.033-3.287-.033z"/><path d="m256 232c-39.701 0-72-32.299-72-72s32.299-72 72-72 72 32.299 72 72-32.298 72-72 72zm0-112c-22.056 0-40 17.944-40 40s17.944 40 40 40 40-17.944 40-40-17.944-40-40-40z"/></symbol><symbol id="clock" viewBox="0 0 512 512"><title>clock</title><path d="m256 0c-141.159 0-256 114.841-256 256s114.841 256 256 256 256-114.841 256-256-114.841-256-256-256zm0 482c-124.617 0-226-101.383-226-226s101.383-226 226-226 226 101.383 226 226-101.383 226-226 226z"/><path d="m256 60c-108.075 0-196 87.925-196 196s87.925 196 196 196 196-87.925 196-196-87.925-196-196-196zm0 362c-91.533 0-166-74.467-166-166s74.467-166 166-166 166 74.467 166 166-74.467 166-166 166z"/><path d="m362.773 170.439-21.212-21.212-85.561 85.56-85.206-85.206-21.213 21.213 85.206 85.206-21.213 21.213 21.213 21.213 21.213-21.213 21.213 21.213 21.213-21.213-21.213-21.213z"/><path d="m241 120h30v30h-30z"/><path d="m241 362h30v30h-30z"/><path d="m120 241h30v30h-30z"/><path d="m362 241h30v30h-30z"/></symbol></svg>